<mxfile host="app.diagrams.net" modified="2023-08-11T09:26:11.512Z" agent="Mozilla/5.0 (Windows NT 10.0; Win64; x64) AppleWebKit/537.36 (KHTML, like Gecko) Chrome/115.0.0.0 Safari/537.36" etag="iufkQYMXvKzUtthfOM-C" version="21.6.7" type="github">
  <diagram id="0g_PpurON_XabyVmmxbB" name="Page-2">
    <mxGraphModel dx="1500" dy="763" grid="1" gridSize="10" guides="1" tooltips="1" connect="1" arrows="1" fold="1" page="1" pageScale="1" pageWidth="850" pageHeight="1100" math="0" shadow="0">
      <root>
        <mxCell id="0" />
        <mxCell id="1" parent="0" />
        <mxCell id="Pg2tOlheWFt8Qy4a81Ed-1" value="" style="shape=image;verticalLabelPosition=bottom;labelBackgroundColor=default;verticalAlign=top;aspect=fixed;imageAspect=0;image=data:image/png,iVBORw0KGgoAAAANSUhEUgAAApMAAADZCAYAAAB8SrveAAAAAXNSR0IArs4c6QAAAARnQU1BAACxjwv8YQUAAAAJcEhZcwAAEnQAABJ0Ad5mH3gAALYGSURBVHhe7L0HgBzHeab99uS0O5tzTljkHEkAzJkUKVKUTjJFJUqyZFknW7Yk22fLln2+c7yTfbZ+5WglipkEQeQcd5EWWGzOOU3YyTM9//dVzywWiwwuCJCsB6jt6e7q6sr1VnV1teKe8MZBKIrYzC6xCHTuHiiufiBO7tN/BSqdiNM/RRgNPsfH31l04r6aT7R98oNOD8VogV5vEMeEvwlh922iKnQnCrKqGKHaM6DLLKF9Y+KcXmwvDt87GVcSiUQikUgktw43VEwqYR/M+/4ThoM/AqKBxEFtc1ltNPteuTKKjiOBfpyTuOfzdsScdm2M7hGDHjGjHZHiFdCvfgaTxkwSlAp8eqd2Z2WmqObISEYI+VEikUgkEonkFuLGjkxGQzC27YFu+Aygni+ShERK6rP4DJF0gaCaXZSpGyegsCtGG3QGI8k5NSH9NBGnS4xMvj3YRXKZRybpV0wxIKqYEFGMmDBmUzwYaJtL55Jicvo9aZ+PCT9fbvRSIpFIJBKJ5J3nxorJ8zhfMPLdNE1Hf2aIO/G4+QaiICq2BjVGv+PQmyzQmy2k1fTsmxsGB1OEO2H4XrpEtN/I+0okEolEIpHcKN5BMXnz0eZrkoiMa2JSF1ehM9uEmFRISEokEolEIpFIro330SS8C8UyC0mdWQpJiUQikUgkkuvlfSQmtbfH2UQVoyYkTRbodFJISiQSiUQikVwv77PXg3lmogKDyUTGDJ0ckZRIJBKJRCJ5W7yvxKSiKDCajDCRmNTp3mc6WiKRSCQSieQG8L5RVCwkDUaDFJISiUQikUgks8j7QlUJIWmQQlIikUgkEolktnnPK6ukkOTH21JISiQSiUQikcwu72l1NV1I6uXLNhKJRCKRSCSzzntWTPIoJItIo9EoRKVEIpFIJBKJZPZ5T4pJFo96g16MSvKIpE6Rj7clEolEIpFIbgTvSZUlRyQlEolEIpFI3hluyW9zK7rrF4EsIsXLNtNHI5NBk9pSIpFIJBKJZFa5JUcmeUTxegwv/cNiUjczWNqHbzRYWCaNRCKRSCQSieRt8Z4Sk2J+JC//c6kRSCkgJRKJRCKRSGaVWX3MHY/HZ0WvkS4kPagJRBaGYkuoqipMEkXRQUfnzBaz2J962eZqxeSl7EkkEolEIpFIropZFZMxEnqxaDSx9/YQo406TVAKkUrei8c1MZk8ptPpYbNaYbFapo6zwKTNxZFiUiKRSCQSiWRWmV0xGYshEokk9pLuXY27M1VdPCEKWVDqocaiiIsRSTYkIvl4PAaDLQ02mxU6gx7xSFS7RifFpEQikUgkEsk7xQ2aM0licMqoQvhd3pAQJIPEVhg1JtzhEUj+ragRYXR0jl/2NpvNMNtsUFhIkk2+l7jvLD1ql0gkEolEIpFcmRskJpNDfklZpwk9TeaxSGThSNukUWmfTJyMyr9jETocpkNsQlDFfoSO8yN0BYrJBp09DTDoEo+/+TAdn7oH300ikUgkEolEcqO5IY+52ak460kWiiQCdYERxKNe2k+OUvK9yIJQgqom/HhEkV+e4R0x7zIOVeHvabM9For8S4XOaBJC0mDUi2MGVVwNHV2vmKxQHJlQbE4oOiOdZxtEYnOBwkwel0gkEolEIpFcFzdYTJJ4nOyHufnX0LnaAH5UTefEKf5L+4iGNLu0r8ZN/IMOq/QnltjnkywydfSLr0r6k7dxGIQw5Z8kHVNzYKhaD33NeijpRZqg5AmUwn22k9gmSR6XSCQSiUQikVwXN/AFHBKA0SD0gwdh2/eXUEg0XgxNHmqCcUpMRvXQBVxQVYM4rqm+Syg/EpkaOsRDk1Ac2TCu/zQMSx6DkpKrvaxzKUF5CSclEolEIpFIJFdHUonNPvzSTHACSmCYdq5GqCbsxOMkJCdoe249yatDuz7uGYLafRyqq3/qmEQikUgkEonkxnBDxCSPNEYVNjrEFB5t1EFR9WQMdPL84UAel9TxXEjEoIefxGeAhKiR7Jmgi+vJ6MgoZMjuRbShdq1KwnUSOn4DPBZDPDCJeDhIuvTcCzkSiUQikUgkktnnxo1MskiMkTC8SnggUg2w8Lt28RcOh4VwZBQdCVZLCmC0iP13HRcLvnwcL5FIJBKJ5BZldsUkiR5+OB2NhoGIDzFFr33+ULxxrRMji/qoAl2ILAbJBOj2tI0H6TRdwq/YiDewY2SPfwnf0UVCafISQjEoUdqGooj7I1CCMcTDERjodJzvRUJSzaoASpcDqXl88a0BC12KA46bGMeReAuJ31insHDUEDxgKwZt1XGEXG04evQUjp0dxiRPNWU77EZiLc7Egalr2KgJI9ynsxKJRCKRSCTvBLM/MsniRog/XvKHhKIQS0nFNM0I9UNb0lNim1BA/K4Mnxev5bA7wpBwYkEqhCkb+h3jfc3wJXxhPLsa+hUfgq58NRQenbwFIR+T0f4Kw5vpxCOoP7If27bvxJZt+9F4tmPK6rQf55E8MnVWRIhEIpFIJBLJjeeGPOZmQaOyHGRlKEblEsIxqXbEEJyGEJszh9jIsnhsrSnRpCVtWSFheJ5lVNtJXufIB+beD6ViNZCSRSHTi7e4xUjnbBD3k/HBN9qDo7vexG9/+TP85Cc/EeY3v/kN9h86gmFfTAy4XkDCj0ID0662smZiZJLhYCQMx1PIH4TL7cK4141AOEjhZLtsJBKJRCKRSG4tZndpIDWGUCSCSDgkPn0Yj0zC2LMPaUf/L3TR5EgjiyYSVqysxP9z903Oe1RDMej1ehJfJEgTIlR8VlEoLhJmPDrJX8UxmOg3uZVRjPi8+4A5G2HILIbebIfObIXeaJ69pYFUF5pPn0LLyQa0nD2LnnE/fDFeVB0wmUzIzCtCybwVWLFsHhaWzHjEnghDhKR7lIyehKEJITpGOzGr8IeakPW68DD6u9txdjCCmCUTNaV5KM22a2FWeKkkIrEVYp234q+2ZcNO8QtLEolEIpFIJDeaGycm+fOH0UkYevbDKcQkf29bu0ecBKA2EpfYT2xZConj4Tj0uoSY5ANCeLJJ2Irxt7pjiButiKcWQF3+ISjlK6E4c2GwOqCj43r+Ug4JUjE6eTEhyVxRTPIF2ojgeGcTNr38MurbBsXnHEtLi5GTk03+CGF8sAutXf3w6dKxaNFiPPzoY8jKsMCK5Nd+WHTqhJiM0D0NLCbjAQoSj5s6hFCM6egkndOFR8m/UQQMToR1VpjJrpnuIR7n68zCL1JMSiQSiUQiuVW4oWJSiUxC33sQqUf+D/SRsNBuQhOy4dE6sc/3ZRGZuD+fI8XFI4qsrnhAbkpM8mne8os4JJniacWILXwY8WVPQW8yQTHbYTBZxIgkj2yyE0JuaZpLuH0eyeOXhEcDA+SHGPb+129xYN8+dNvLUbN8Je5ZOR/VRbnQqW70tx/D/gP1OHiiH3GdASseeRb33bkAWUoYIY8LHT2j8PiCyCosQE5RPiz6GIlJP/weH5pOd0KNxpBTPhe5eRkwqePo7+lA54SKuDUT5fnpyE1RMDYyhu7uIfILHU+ISV4UicOgzRpVkJObi/yCPNgsZikmJRKJRCKRvCPov/H1P/sm/5gavXsbsM7jr+DEWQHyN7jVCHTublh6D0AXi4pROqFx+FG1sJ9QPLzP55L7Yt4kj0omRiaFwpy2ZWNxIjbvfsQXPwrF4oDekgLFaCIxSUIqMV9SlwzTpcJ2qeNTkHBTfQhOjOH1V7ZggsRf7oJluOOe2zCnrABmgx46gw7OzAykpWehr6MLbrLb41ewfPlCOA1huHo68eKr27Ft12EYbXYUV5TCYlRgjEcwMjCIn/6/76Lh+DFYs2pQWJQNsz6MA1u34JUtdWjvp/tlOZGbYUbj6TP4za9+i2P1dTh+/CROHD+OU8fryRzDseNNZBphIBFdVFIIu81y5aBJJBKJRCKRzAL8RHT2II2no3+KEIviYSvpMRaQLABZA9Jx2k5BopDf0tbe1KZzSRPXCbssJIWYnH6NkEl0zpSCWPES6E0W6Njo9dCbrSQkeYEh8frPOevXS5zEZNCN8bMn0OtRMaE4UTqvCo6MVLoDn+c/VgpmDtKdBVhVmQ5HdAQj7gkMuCOIRn0wqV7oOBwwUND0ZBI+oz8KiW69LkaiN0buGRO+TsQbezwRXzpFB7vDgZLSUpSWlaOsrEyY8pwUOHVB6FQjLKZspDgyYDZpn6SUSCQSiUQieSeYXTF5AQlBRxvtUaym7ZJfsxGiMyGYksJRCE4iuc+Ci0WdMAnhSYeheIdg3Pd9YLyLHDRAsTpoq70QI2BnNKfeFvxYeXhkWKxEBL0RGenpsFoScxenwS/hZGdli9+hUAhjY24xSitIPm+nbfInhUL8VUhgikf2Yk8juRWW6azJbMGChYvw5T/+Y3z161/Hn37jT/GnX/sqnnjyKaSkZVCwDaiprUFtbSVSUmzatRKJRCKRSCTvADdMTLJgFKKRxJga15MI5KVxeMujlSSqeGiPRySnBGRiRI7fcGZxRcf4hR0hKhMikq1rL+WQW7Eo1JEOqDu/C91Yh5ijecMCQ/h0TujTS5BhNSKNlPDM8T+jkY6npcFsvlBoRnUxhPVRxJQYB1cTixwNRj2FgwRw3IiYPk72KJw8cqnjz1Dy4kc8kknuKQ4ouqRIJIEaG0R0vAm/27wbvV7AVlyIZXcvQXF1QcKORCKRSCQSyTvDjdRfF8BLA4l5k0JDJlSVEIz0kwSm9pa3kFpTsMxMXCDsTi1krsag8wwDzfsQ+cFnEO89TaotLK55N6AFnUcmRQiviSgJ6c2bNmGgfwAGowH33nsXyivKEmclEolEIpFI3jlmSUxqI4u80I0YkeTfCj+61R47i9E2VRVL+vCb0fE4v6TDI40sJDWRqAlFnm+peUkTm9qIZPJFc3aR5x/y6KVmj+5HbupdA1Bf/9+Itx4Awj7NMl8z07wN7KobsfEujPvicKl6/vrjeUQiEbhcE+IR90z0JJKNUR0MtNV8TfHFo7GsifUUD2y0XYL/ai8rnZsOQH/Y8JlwBO11jag7cgqDaiqqbnsUcyqKkG1SLhgtlUgkEolEIrnR3JCRSYVfo2YjHtmyxGHxFCNDgjIhEJNCUjziZkNo+5poEh7TftKGfrDGouvE6YSdKUigqi0HEN30z4i3HSVByR/7nobm/HXBL/Tk5ORCz26oUYxPTCIQimgnpxEOhzEyOip+86PurCynWJ6IEYJQ/JrulWmeOm90Mhm2GWEk1GgUowOD2LzpTQQCQRQUlWLlylpkZTiE/6a7IpFIJBKJRPJOcEPEpFgHMhaCPh5OiDASRiQAVZ2BJBLPnUyKRj6pSSDe1RYYJwFKx4SwZEHFx9nwDyI5YqcTcycNiZNkMzIJtasOke3/jtjZHVADbu0+wnG+MGGuBUUHxeJE1pzFKHDqkAI3Os+chm9sYlrEBSh8Q5hw9+Nw6zgmDdnITU1HvtMIA3mPp0Tq6f7mKGAkoydRrCcP6cjPeoMRMfaTfnoyqBS2GM+WJMOLnrMI52WWAvC6OrBv60toGLPClzoPT9y9FnPzMmA573qJRCKRSCSSd45ZVyFCt+l00PEb1gqbxC0So4qaRBQSLyEok1s+nzBhUlz8IjRtxDk2PDKZ+M2PulmgicfFwq2ECfuhth0kMbkTsfE+bYFvvibJtJ9XB91Bb4Y5PQuLF9TAYQa629uwd08d2lq6EQmFEQv50dfagH27tqJ7yA2YUrBm5SqyS2GnoFvtNhj1Bugo/MMDAxjs6xO+drk9OHXqFEUL+ZEF8RRCSgs74vE2e5rs+NwTaD52EGcajiOoc2DlxoewYE45UsxGYVcikUgkEonkZjBLi5YL6SOEmxpThZg08BdodAr04+3Q9R6FEg6RFX5Lm6yyPkrqJ9pqVzMJ4RlhJUlCjs/xqKaAL6J9YZ/nZmpvdE8dTBCPhaGkZkMpWgQlvRDi29zikTuf1OxMod30CtD1ihEpKVa4xscwOjIEz1AvxocH0NXdhbONjTh58jROtQxgUpeHeUvX4P47ViHNboSRwmsw2tHZ0YaxkW64/ZMYHvegt6cLjaePo6HhNCYng1DJXlHtKhSXZMOu86OjsQHt/V4YbJmoqSxEXqYN3R0d2LljDwZGPVB1JuSk2zAy1IfWljY0N7eiqZnu4Y1CZ3XAajVA+0aORCKRSCQSyY1l1kYmtbeSWXix0UFntEBvsopHuogbSDxqy/3w/EhtKSCG1d25kbgkcXsaO0gakd/+1t4A16zyNmEEF1GDdJ0ajSDOhuwlR0EFF7F+efgCozBZRYVYfedG3L1mPorsYXQ2n8LO3buwffcBHGvsxUTAgIg5G+lFtSjKtMAq4sEOnS0Hi1ctQk1tDqJhDxpOncH2bbtw5vQZpKWlw5aaigj5kz+NKIJI/ygEZLR44SHZWCyCCZcXXUNeRBULDFE3zh7fhx3bt2Pr1m3YsnUHbXeg7mQLRtzBxNfEJRKJRCKRSG48szIyKYQk/Y+LF2xUGIxGGMxmKLx8z0gL0L4PiIRYKSXEIG81I27Lh3QkO1NyEStbCTVnDpTJUeg8YyR3We+SBf5MI/3ir3ILiajEEItHSYJFEsKL3aLj5L4uqwxK+WooGcXiBRo22o1mcLFjl0RFenYe8guKYU9JQ0pmNvILi1FSXIjsjBQoJF6DPq/45rbeYkdKuhMmPb/hDmRmZ8Fqc8BqT0dufiFKSwoxt7YKy5atQJozA1nZ2aiaMw95WSmw6OIIByMw2bNQVFKKypJ8pKfaEY1RuAxGFBYVi+P5BQUoKCgkk0+Gf+ejvLwcxUW5cFop/jVPSyQSiUQikdxQFI/LwxpNiLAk2ijjleFrtJFIMjp+7Exikv6ZrVYoBhKHbhfUM28i9sbfQAkHtGvEckHsPo++8URIQmeAmpqPSO09CC95HErQC8PRF2A68RaJND+ZIKnICGJkL6qQuyQkyRKJVRWWiPZmNX+uUMzLpN/K3Lug3PuH0NWsF4/beS1GcctzQdR+X5OYvARqEK7Rbpw8Wofjhw5jYGQChnmP4JPPPoYShwmGi96Dbi5Wbdd+amhvfkskEolEIpG8m3hbj7mnRCdt+DeLNisJSZNReylEPKYVYknbm87UHr/hTUIyVnM3oiwk7RlARgnUpR9AdPWTiKdkk3jUIa43itWGDIhAz28789qNJB75k4w6lYUYBYXEbVwEKeH6NIF8wyC/pWXlY83Gu/DAo4+joqYWi+dWwWnVC/9eGj453UgkEolEIpG8+7huMckjkWx0eu0xMhv+pCAbhudK6sVjaLLLYk/Ml+TFxlkA8mvafMJIYrEA6px7ECchabTwo2ETCUZyN68W8Xn3Q51/H9T0QqgKf1qQF8yhe5EbBhKShhgvBA4SleQUua3GoC0/RPbE/d4JFBPFYgpM9lzUrNiIT//hn+Kpu5cg00BiMmHlQrS4EEbYurRNiUQikUgkkluZq1Yx4o3oBEJIJh9vKzro9QYYDAZtbuJ0+BIdCTtxfIa449FGniNJgjG24iOIO/MBk5WMA4o1FQq5Gc+uQGzVh6FW3g5Y00gfJt0g94QYo/vTdmr8UWVVSfcTJnFsxm1vNBfEgUQikUgkEsl7mKtWPvzVmpmIt6XjKgkoBXoSjToSiNPhR9Nq6XIoGaWAnr+Ew+c1dcdCMj7vASgLH4bRlgKz0QyTwQQr6UCr1Q6jXk+G3HXmQL39E4iueAoxWyZiigExUwovvYgo3S+gtwjDbvNLJ/qAjxznXeOU6J0i+fMdePotkUgkEolE8n7guobRzh+RNIrPBoqRywtGAcmeJRW6+/4IKFsJmGziqFqwALHbn4O6/EOAMw8Kj0aarDBa7NCRoNQbyF2rdoydVHLKgUUPIF59G/mYJKN7EPC5hYn7J4RR3C4ooZB4gxs5laRIU8W9zoNFpBSSEolEIpFIJLPG1Nvc1wKLR2ESj7Z5ZHI6QrPFVajBIKKxKN1kGNHJcdoOaus/OrKB1BwSfClCMOoNZuiMJhj5rWtGBWJqHFE1iljQDzVC1wS8iPvGABcJSe8Y9CQ2p6OQXZjMmgDNqYCSnk9umjV/8qP2i41KXiB+JRKJRCKRSCTXwsXF5EWE1/THxfzSDc+R5Le3p+YIJu2SNSEmVRaTIbEuJGJhEoU+sdaksKYn0ciGxJ5Y3JwvIzeNJAbFvSNxMSUySpaj4ZC25BBfz2/YsAMhHxS6fzxG++IrOIRCotWeIR61K1a7EJL89RshdtnvSe8n/ckkj0kkEolEIpFIrotzYlLorYS6miG8hJDk/4k5kXoSfvyIm3f5mPbYmwVkXHxrWkDXsthLvjQTCfq1eZe0y6OFOvFiDhte2JsXHad/LEz5PCtJnSK+5CJGOOm6eDiCeCQsvreNaES8ES5WleR9tsfzNnmkk0QmGyEi6bj4nGLC/8nwTKF5TSKRSCQSiURynZwnJpNMiUqGfrIwEy/Y8NxIEmb8WJu3fCHbTIo1ISZZMF4EVSVhmTjF7olrLoFeuKdAZTf5ALvJgpLEKX+Pm0c96QArTT4r7LKY1AmBy4b9mfCbOJ3Ymek1PiaRSCQSiUQiuW4Ur9sb197KFuN858QXwxqMfrP4S75oo0+MHiYR+iwp6piZgu2aOSdlp3/CW/wU/lRJV9KWDghRqWhf4UmiKCwkebQzAZ0Tv/nPTL+du0wikUgkEolEch0ooWCINJmKWIxH+xKPm1mAsUDj/4nfLCR5K5b/mSbCWEdqMjRx7fST18vlBKkQvQkxKUQs+/vcPbXH7tPEZBI+IMWkRCKRSCQSyayixHmYj2BByeJMiMGEgKT/GtNFV1KQXUqIXU4IXi2XcmP6cbo/z5qc+r53kvhFHqEnd2e6e6kwSCQSiUQikUiuiikxOVOoXRY+fyn7MwXb9TBDH14UuifPqdRdICbZM2Sm+ymJFJMSiUQikUgkswq/8HxtsCCbDcEokUgkEolEInnXc+1ikrkFxKTUsxKJRCKRSCQ3n+sTkzcZ8fKNfEQtkUgkEolEctM5N2fyHUelu8cQJz0bh15MX1TkcKNEIpFIJBLJu4qbNzI5QzlKHSmRSCQSiUTy7uPmiUlWj1JBSiQSiUQikbyruflzJqWglEgkEolEInnXIkcmJRKJRCKRSCTXzc0dmZSCUiKRSCQSieRdzU18AWeakUgkEolEIpG8K7lpYlKsFcl3l2JSIpFIJBKJ5F3LzX3MTcin3BKJRCKRSCTvXm6qmJRCUiKRSCQSieTdzU0fmZRIJBKJRCKRvHu5aWKSp0rKKZMSiUQikUgk727kyKREIpFIJBKJ5LpR4mr8pkxdnBzuxMEdm7Dr0AlM6tO0kcp4TGxTERF2Vn/o86hdVIUcmwFmceTqEZ/+vlLQdEH6owIxcj1u0IZJ6cK434vek0exaeceLP34H6K8KB3pfIqvuQ7YL297BDYeQDzcj9GOfnz7p4cQCAaRmRvDQw/dh50H+1FUOh/rV9UgJ+3m9g82bdqEvr5+3H33XSgvL08cvQhxFZ4zO/Gr//oFMtZ9BstuW4rCNMs1p/OloXRV+3B2/378eNcYVq1/ABuXlSHT8TbjJx5ENNCDvuYO/KoujmefuQvZJiP0idOCuI/ylBcNJ9vx2xf3wRfwwp4fx3PPfRa/+LctWLlyNVatrYIjZfZCOyuow9j35stoHU9F9coNWDInH7bEqRtCPEz3DCKmGBDQ20TP1jYLtdHBgwfR2HgW8+fPx6pVKxNH30koEJT33qC8fWQoE3c//CCW1WTDpo/RKapnVGOirtFsvzfgMA8jOj6K//j1cVTUrsC6FeXIcJ5XMi5N1A3fQBde2N2EUFoJHrlnHXIsiXPXSKIaf/uofgpWFGGdWRhKOVhmw91LEfOg48x+bNl6AJV3fRHLl+QgLXm/t9FM9zeexOHtm+FzZGPJY0+jKNOOlMS5c1CdxXVm3Krl0cvkT92NjIPrRfHSnzhefmEvfJNRrF67BJVVJdq5K0Lhvs43OIKjfTixZzOONA9i3iNfxNL5TqQG+vDyD36A8cI7sPGulShJc4BK/FVxybjl41x90CaUcMxMO7dSFXLTlEcsGoHXNQ6rxYRHHnmYGtpPkXkOn3nuM/jopz6FirJSbHprKw4db4fHF01cdS1cTeZQoUbDeOOVLXjtpe0Y6BvVDpPQifgnMT4yBH80xml4nVltNonDNTGC7Vs2waA341Of/DA+8vRTSE9Pw/iEFx5vCLHYzfelx+PF+Pg4wmESCldADVIcD/bC7fUjTH6fdd/HIwj53RgcHoPbF0aU64y3TRw+3wQOH9iDzJwiqMrFipCK7o4W1B8+BGdqOj7+zO/h6aeehtFixMjwOCa9JKBis+KZWSYKn3ccExPUsIciFLbE4RtFLIqWU8fxy5/8FKebekSVPhv4/QEKwwT8ARIDNwvKe17XMIZHxrW4pHyjqhEcPlyHX/z8JbQ09yQsvocg4RWPBjE65oJ3MoToNdVHUagRSjeXC+NeH6JvozKYtXqE2qg9mzfhlRdeQ1fvyOzXTzOhdiccpPqT2p3JYHTW2p1oMAD36AhcVC+HqN5hdy9EpfoxjJde3oxXX92JgYHxxPF3C1x7xET743J5qP3RBqRuNKwf/O5xjA0PYzLEWoHaMSrnnrEhjLsnRXzPRhoGJ304eeAQfvSd78A16bnxefE6uGlikhW4ntLfbEtFekUtiubUYE7CVM4pxO0bliIW8KG1oQnusUFS4JPU2wxDoZKg0HVitI8KnxKj42SCFL0BcpezlDYqSWImPkmGRx+14yFFQZjMFHROifkwPDiIoYFR+IJhYSdymUZUUeka6rHGqOIM0T5veZ+PTyHur/0UKOQXhXxHdhN5nko4WRCVrWaCdE82WtabZkQ4qNelhhDwKmjvmUDNyqUonleJsopSWEigKAq5q1Dh4Yhh+D4xakin+4lPJU4LOF7USUTIfT/d95z0I0t0nE2A7s/npl921STcF/4nOMjsFodRQ4G9ZCU++Lm/xMbbFyI71QR9Mp5EWCjsCRMnE2Y/komr1INWvdT0RGk/DqHJuK/BN2Cv0yUiLkWfzYGyRevwuU8/iXXLC5FiS9yc/ST8psUPx3SITrER659exsQiOrgHDGjr8GP5omzYDHQwcW4qnckj7rFJEvh+FNSUo3JBNSrLamFUbMJXIt9OpXHyGq78eP/cvab8pNJ5ymMRCiTvxxLnRcDpuErhmOl/kbcoj0Vow/ERFXmE78Ppkby3Zvg6kfficeE3PaW8iXI3jymxWywq2Y6I/xmGalO6F7kZp2qU9tlvM+2KtGEjwspxLnboZByTHg/6e/pJYEeEb6bSWbMxDb6W0kyUunOwvQDZv6p8yqM7Mbo/G84o4iaan8JUsZxXDig8WjngERsNjiO2o/merye/cNmMc7ySWCQj8h4ZUFrf9sCTePaZx1BbnkNpHxL1lGdsFH09JBZ8IS2e2B2OPzLcnUrGGZsoGbbDeV2MklF55iAIk7AzxRXL22Ug4auFlcNBu2T42vPidIb7whKfvGKkE6I+4uu1a/nSEHXC2PDv6XBdppDvRR3P1UCyWiPDJSRZSjhYFxh+skX1npIIB3Nh3qA0u0Q+mgqziGsOaxSjIyMYGByjjgnLBEphKuNUqi5MBxE/fpFWIs2Sxy8HiQ4tXii1EhHBay/HLtYqizRiP3PEKOS+QmmbaM/YcAxw4WMj6qEQneP8qCC9rAZ3Pvks7nvkMRQ5LbDQzbj+Oc9QXjZE/RjtH8DwwJhoC8lnIr618xy3XmGSnuVwcnxR6mok81GiXp3OVNmZykcUh7xP5vz6gtwW8e+nu3B8kx8SdpJxOt1cEi6b4j5aOnP68/05P1yAKMdUztn/FNoYyaJgIn+KeGXDN59KVNIICTs6Zx4WbHgCH/r4Z7C4MjXxZI3qd8ocuji1zWQ/4QL9Zv1C4aJywHfieJs6lzAXkGir1IgPk+Mu9HR0YzJmFmmTyDIXkkgHleqlS4b5BnDTHnN7e1uw65Xf4Ox4GLd98r+jpigdmcInnJmG4BscwDf/cxtyS+fiiQcWoiDbgDMNPXCNxbF02SJkZPEDOMpsURc17oP43f5mrLl9AyrzMmDhVpAaga6WBpw4fgZjXu4x6BA2OVCQn4/H7r4NOipkXc17car+MA4cHiJR4kROeQHmrVyENbUVGD++B795/U2s/fLfoLYsC5nkJGets8f2o7mxAY6COaheuAx5GWZMDnXjeP1JtA24yQahWuCwO3Dv/RuQnpFKIokae+pxnjzWioBPQU5GOjrONmDM7ULESO7qdFh170MoKMhGCv0+/5EpXesbJfvN2LN9N86cbYWxZgPyctLw2F1zYTXr8b2f70Vp5RI8cMdS5GeY6P5h+FxDaDpzFseaejV3YhakpqbgzrvXIiMzncISoPg5g1Ntg7DllWPFkgVIpQDGYxF4h9qwefNmlKx5FBVVxUg3GsUjnv7+fjQ1NSE1JRWLlyyGwcBHz+fXv/4Nurq6cNe6xfB7xtHRN4aozgJbWhYqFy7G/DllsHM6kwmPurB161YULl6CksoSpFpURCiezpxpwamTzYhGtWrKbLVh7Z33Iz8/A9aYC56hAew8fhYF5VWITVA6k/1QlHrcejMyc7Ow+v7b4LBYYae8MUEdhU2H2zB/6UrKY7mwkpf7u5px+thBDAxPkN8c0BlNSC+uxj13rYGVCt7lyp5vwoNTew7j0NGj+PhffAVmkwlWuoKvUShOA34PTtfX4fDOnegY9AC5taitKcPqFfNQUFSI//Un/4EN6+/AhnvmIzXNSheFEAzQNaebRZhVEjlxnR4WqxVr7r4Dedk5sJEI8Y4MYeuRFmQWlGPR3Aqk2bV0HhvsQn39KURTSnDHxhXkF43wmBsH9uyDrbgYpXOrkW6jxA150N7ehSOHTiGSiFtmNee9wlykYgDbf/szNI+YkDd3HSy6KAY6WkXZgcWJuXPmYP3KuYmrNE4e2o+2s43whKgZ1ZlgtDlQWj0Xa1Yu0CpWql7Gugawf+8+LL19EVo7mtHbO4qszHzooz4qTwfQOeCBpfw2VFXm4dGHboPdZoc1UQlPQUI4GHKhubkTx+rO5Q2d3oB5a+9AdVURnHq9KDvbt+/A8ePHsWz5MoqTjcIe4/N6sG/zaxgdHUVQlwG9wYQNdy1GV3crIoY0VNZSPZOZKh5l+r0utJ48iFMNpxGkc0w8JQvrN65HeU46TOw5qqyHelvRQn6CKY3qpGxsO3IKBXl5eOyOWjQeq0enx4gFS5bAHOhH87F9lG+6MDBqREEZpcv8Ktx9xwbYfAOivC1cuxHdvb3o6+tDOBSG1ZmFuYsWIC/VgOa6/ejpG0ZYl4O0NCceeuQumC0mUScxk6M9OFF3EK3dQ5QOVmqADbBk5GH9betQmX3hQ83puEepXJ84jKa2ToT1ZJdFnjMHDz10L3LpHnoOKzVOnU2ncepMG4ZdJNbiBjpuQ15+Lu6+dy2MRipYsX5ERgbxre8exNzF63H3+jlU19FxEk0D3W2oP1yHYQ93+xX4DA7k5ubi4TtWw261UMs6Bi+lw4/fPIpgZhVum1eLvkMHEAhHEDaaKawW3PPBe5BK9aqF6u5kuM+DBPn4QAd2bNsBN1eshFdnw+Kly7CcymCqjXKk4qd85MbZxg5qG1qm8pGe6gCRjyoL4cQk+lqacOr4CdQfrcNoLA1pZYuxYlEJ1q+oxMS4Fwf3ncXtFLf5xVSX6iivckeByuj+k52wZRZh6YI5cCRmsbA+uhjH9u1CB93HG9JT3WVDdbkTGfYJvPD6Hix65C9x+5oCZNC1HP1Hdm1Fd2c7+CFdTDHClJKOyvnzsWR+tcivsUgUw+092En1zn1P3oVDhw+iezSGZatvR5kzBR2nTiFkiGPB7atgN104naircQ9OUlu478gwuZ+GnLICLFi1GGuWLUa6mQRWOIjhzlPYvmMngvoMukKBNacYK9csR1l2pvYYl9qqoZ5WNDW2wJJeyEdwiu7LBE2p2HjXXcjVeXGa8nLngEvk0/ySIixZvRKZzrREfaEiNNaDrVu2YIQ0ZSyuJ6FpQnFFDZZRnBZkpwr3kkzFrcJtr4qf/fgteD0RzK/JIk01jm4SxhHKA3ZnOmpXUlkoy0PKjPTo7ziFhhNHMTAySULeSuUuAxXzF2PhvErYEvIoNOrGtq3bUEF+GB0fQwuVxdySciyprESgvxctvd2Yc9sq5FHbaprswC/+6R8xXPoUHnqM7pnloM451SnjgzhD92ntG0fh3OWYW1NCbcVxhEIh3HPPXUIHJMNz7NgxuFwuVFYUQk+do6PU5rQ39qNrcAgZt29EcWEOPnLnbdT+s8vn4xkbQNPJw+gZmkDZqntFnp4Z5hvBRcvkOwOFTolR5R+BhQTMeZmbxEdLRx81YioqKvKRnm6iTtk4utrbcKKhE+5JariohHFfEdEQ1UND2HfgNIbHA9TJo2OUAfp6B9F4phWTHj+ySLxlZ6WSWPHgyJ7f4fWddXBRJWW02OCkBsBot0JvM1IlnUKF2QYDxUpMR0JVF4dJjYqMoKOGu+X4Ubyxcx96qERbbCmwUePld/lJtPWgrbUfmZmZyMzIQHaaiqbTu7CFGvN+l5eEapQ6/V60N7Xgrc17cPDoSVFBOqlRcjqiGGytw1vb6zExGRIVrVZ9JAxVHIqeKlB7KpwkFHW6IBQqGJYsyrTGOMVbmBKR45Ksc0+Xeq9j1Js+uLeeKpQT0KXaYc8if2XZ0dZYj02vbEdv5zhi1CUMhIJoa2pGBwkZJaSNt0RIFHScpUpxx3EcPLIfgQA1HDyKQ6arowdnyO74uJs6w3zDCzFThRIY60f9qVaMBnRIo4om1WnExFgf9m7dghNUOXNPM0KlJkYi+eThXegcGoGbxGDANYmzB+txqo7ihxq09MwsSo806N1+bNq8DZP+qOh0xUgoHT1aj5fffAstPYOkczKRTg2mXh2limo39tW3wCeyQZRE1RDFQwMGRygdYj4MdZ3CroOHcGRgEsbsAmSlZ5HwtFOYG3GGBAhXylygLzTUq4x74fGPoXl4HLWr1iKF0tDEoidhB9wTpcrI7rDDkWKA0UQNuiOT0i0VdnOEBDn3Fjnnc1+fWgUlQhWMF8f3HcfRw6cRoOtTMzOQQg34cH8Pnn/9ZTS0N5Hwox4w5YHW5hZKr9PweCao1FDYogGM9PVQWu/FwQP1JMTJD5SMPHrf3deLupPH4aIKzER5JOr1oam+Cbu2HkD/hB8pnCcybTCZY5Qu++EZnKSOhJbnhkY9ONMyiHF3mERfOjIoPBgeRR1V8B0TgxS3VPIovTpPn8WZpnbq/RqQlpmNLKqEw+5JHCJ7p44cBbUF4mlBYLwbdXvewO9e34JuVxT2tGw4nVQenXbqmBgoHwO21HSkplPPnoS0keJ0JtTGoKO1CydOnkHMQGU1KwPpTjPi/gm8/to2NDf1kACjOE2kBT/5EPOPuDGg+sVFImPnay/g0Okm2HLykUr5xUll4ui+fdi16S2qfNvgdwehpxu5xoZJLOzF1oPHYXDmIiUjC6lZWRg8ewoHXn0BrZ29cFNcRSgevGODOE558RUqv3VUDxRkOpFFZU6hjNrf2ojjJ1ow5vFBbzbAkZECK3XEjEYqyymZyKZG3kx1XMwzjGN7t+K3r29D52gAthQ9dXrcaDt9Am++tBm799RjLGxESnY27EbK+7texP4TXSSYqF5RwtSBGcfh+gZ0DfjhIBGYRWmbSmrX01KHA288j/YJ6iByVHDk0P2mDDVS3uF2HCfhUdfYDWtaPgniLDjT0+EbG8OhXbvJbUpFSo7h4RGcJGE97vJo5ZLyjk43iLpjb+Gtg0fhIafjJCmoxiSjI3/RRSIZVQwPDePMqbMYo3KbRfVtFt0jh9L9+PY3sHnPKQxQvce1D/tPoYq9u6mbOuytsFF+yMhNo/IQQlv9Dmzbd5I6LdoI9nRDUoXiexyDfd3Yuu0M+gZi4h5sCp02NB3eizYSyl4S6DyQ3nm2jfzTRHrYouWjVDNik+N45dW30NxC+Siqh8maBmeaAzYqH2aTHilOJ5VpC3SxANwjA9h1qBFDbirH5AFR9tUgou5BnCZ3W7pGEOZymDw308fhSRzd/ia27T2CwZAOjuwMKotWeMZHceLAKcQCJN4o84r2Le7HmWP7caa1F6o5Benk34xMOyaG+3Fk+040nzotRveilMcnh9uoE/sqfv3aDkxELchMp7qHxEbc5yGxeILqjjMIxbhVJfepjHFdJAoWGYPVTnVCLon2VFiNDmSmUufIZoOR3PWN9KF+/y68ubcO+pRc8qsWt96+dpzY8Sa6ujrhJ7d4VNY93ocjB/ZTeTiOM10uspeK9Aw7Wqk+2PW7l7F15xGMk3hOo+NKiMQVtakH61sREE/pwgiFfdj81mFq4/VwpmbQ9RQGfQA9x7fh8IF96BoJiDHlqbjlBBCCjzObDkZqp139nWhq6cJEkO+TTZ0IHTwDvdj12nZqw1tE28MmHgviLOWNrbtJeE2C2sl8Ea445ZOGvRTnh7it4lFISl7/MBoOb8MLb2zF2X43rLZUZNrtpA8CGO05g9PHD2F8kmtl8o7QD5qPtCIwifBEFw4dOYk9J0cQjKcizUYdPj/d/3QjTtSfoCTg0Uy+gEJHHefOjm40cBs6Okl1tJPyIpVpO7Up+gilv4XiJuWSbfCkj9rRpkYcOnQYYyTaSSa8I1w4tPROIZ5jxKjiHkL9vt3oaXRSw6wJGn7MNkSN5OIltZg7rwR2O4kIaqR0VEHHFDslGPXk2AkqbCzyTPyIKG6lwqHX8hWVEpVKWHZBGeYtzkFJaTk5GqJGuIES9TRe3XYYlQvmobqkDAVlRWjqeQOhiBnrN6xBdUURoj4esSL/6alqJD+xmGw/dQK7X38NfhIHKzbeh8UVFUghweOeiMJhz8bS5euwZO0yshmDIdoFi34Em47VI6eiCulWEn7kT4UyDD+WTaWGd+Vdq5CVZoDia8VRYxDf2deM9XffhgIHJcp5Ep8aW7q+rHYeDAYXVVYnULpyFW5bXooC9CM8MgideA5EGYvFk99HopV61SeaUVBRitsef1T0RNOikziYpsPzLxxDiqMAjtQa6lkVISe7nYTeOPWqx5BSkkO9pAiamgaRl1eLprZTcPvWI89qRTQcRX/vAGVgE/LzqbdEQvpimKhSNcX8MDicmLt2IyoKqdIIe9DY2IYtb+3H7m07UEq9zIx0Cmg8AD0VnLBBLx4ZBFw+dB5rhEpi4c5H7kdJTi6Mvggm+vvx+pmT2g0o4UmXUTrrEKIKsXROLZbOnUuNrxcj7Uex6dUdOHisDcvXLKR8EKW04LxB2Zx6fSxtelrq0UThSFlyBzbctQaFVPoDwQCON5yghozFyKVKXoScc8HjHsJgIIL1y5ZfZFI1iUdzKuYuXIiwt4cqszbkLFxOvc5qODFC4t1HzvOjTEoryvsqCf+mU41oONSA1OJiLL//HhRRz1vvdaGBxO33tryJ8O4dqH3896gyyUNJcS4mPCOYcA0jKz9NjJ4ND/QLwR81+NDfN0bu8Bg6cKatFYrNgrxcJ1LMcbSf7BCilRIOdzz0AObPoXIVd8PjdZPAbCFRo40Est+iJGrTqDFZtnwh5pekU3kIorP+NH72sx+jrqWBwr4eVmpwY8EwiqtrkV9ZhuL0DJgicRK8TXjz9VdxeNde5C9eQuJHJ0S0Pu7BZMyAVYvXYFFJPhycfSJjsGEYY95TmEt5es2KPKReKvopvfV6M0rKKlE5bwmVHQeMoTEM9fThf/9oB+qOnkZ1XiasJqpkyQ19IjxMaNKNLuqpH9u3A1UP/Tfc+dD9VKZZ6sZxcPNW6KNUj5CI0VH9EQ340d7YgMNUETur5+PuJz4IC79gRdmnPM2KzS/8DkdIsCnONJSmxegaEih0p5AxDdklxXhgVY1wF+EBGCh9VaSK+iotLwfZuWsw4U9HMDSJtavWYTGFN85zrqgDpifjJ19VU5wtLYtB8fbj+ecP4ejxHuoIZmHjQ3eiONeG6OBxDDXtxV5qgCsXFCPFRHUj5Wu9PQW1K2swt7qM4oDytJsE3P7NJK724kjtXVi/uhR24dNpUEM43teMFmp4VGc57n38Q3StDtFoDN0tbeju7ib7WoJwDZNTWIS5S4tRWjmXmm03xofqsOmtMWzasx+VlOdr7Fz/GrhWJsNX8rXUKaeNM5PyL11XPXceRY+KaHAY6G/G1v0NyKupQlohxxr5T1VA7SXl21xsXDsPZiN1MseaYRhrwqu76ynOeKTMpI0MT0FilPJST1c76huG8dBDD2LjHRXaKap79uzcAQPlQ57yoVKdoVfMKCuvQtn8pchMs8AQGkdfVy/+/idbcfjoKdTk30F1YzVyc60Y7TsDw2QOlt9G+bbKAltgSAwwhBUbIgbqZCU7PvEQCS8/hZqFoOGy841HOpqx/81XoC9fRWX+ASwoTadyEERvSyt2Uxh0qp/aORaTBNWRsYhXPNWpqq2mDgh1WKktOVlHneIt+3Cc8mkFHddTG2BQqIOs88Ebp7Zs3Z2o5lF28oeb3DRS/aWjjpqqaG0npye3GToWk0ReWQVySkvR2raFBHMq7rptFUqrsklEeSluWnB0727ESubj8SeeRJrZQu0A0HxiP/ZuewtnU7NgSs+lDgLXn+R3jh9jOkpra3HnokzqxEcx3jxAdVA9DLdtwPqNd6IqX4/RZqqvSfyfONOH1auXId1GbSRLNxK0t61aj8LiLNEhD1Da7970W5xuaoCR2qWM7HJc+G4W1+/UnSGNYKROdip1ABesW4/S/FTAN4rmMx149bUT2PvWXpTOLaQybUGEOgX1O96CO6MMy+65F4tIC6RQuIZ6+3Fw2y7U7d6PgppapKfZqHxSHUb1mIfKaPHcRVg1pwjpFgNi1IHg4zrq1PETOBae/HSL05/zAm0QcQ+g5eBO1J3yw1KyktqdpajMtooOGtdVcRL4oqgIWCpr6oZ6D7S1CB2zZn0qUkg/DIz24577b0eWLZO0Cdu/EBsJzZrFC5GaX4JSqhMNbI89coM5T7a8swgpCB81zJ39I2hq70B7e7swne2NVKH5kZlBEUENSFwlb3IlRZU9yPBDDo4bLX5U2iNDjbO2zzGnori0GPlFRRgcHsbhw4dw5OARtDb1Y+HCdfCS4HJNJubbiSu0f+LSpOEj3PCTMB0aGccbb+wUcxXuoIJQTW6bSPywPafTQeIonzJ9DPv378AB6sEdPXIKixasQIR6nRNjIUTCVElS6VMVA/JKq7CMGs7sdLuIfAMV8IqycvHCSihE1am496WgzEmVly2ig5X8zllVq7TZJdoqUUy6+sTjkBgVyHV3bESa0aplOqpE1txxF6pqytDR3kw9ngkqJLnILyig3uAk9S5byZKKYJh6S9TDX3nXBpjCCsZJeEWCbrhGutA/QJnfkob07Fz2zEWJkthMoR7emlVLUVaYSwWNevkmB6oqK7FySTXGB7uolz0kenCMSEfyH28NVur5G43wejwYonTzBHwIkxCyUfw++cFHSbTz/FDqr+sorRULli1di7lzq6nnpjlkJdGbnZ0Nv98vGrBEQoqN2E/cJ02nwDI+gfGOLnDWMtutWLl2DZasWEGNzoUSUUDxHvL44BkchcnhoB4vieG3AzU+amACDc1tCJjTsGDpMhIL6dQgKOQfG3Wi5pEwuQ29JxvR7fJjggJQQWIl6nJjrH9YDEJPegJwkQAvKqK8npOGBqqs4yRuYtS7b+kcgD2jEKnOdGpQab+9DYP+GJavux2L5pSTwKPcQ42qMzUHj33gXuRRpasnwa2jWjAvJweLFlWitFQTpgaLHin5Fsqb1LB0u0kE00FqtKoWFJFIcFDe6UbdkaM4duQwfJR2NdWUzvwCDPXwBSRODXorddbWopQ6LNR3uGYUSvOKklxqHHJFx2Tf/qOoqz8FX0yHcspbg4ODCEcS96NE1lKeC0lUvNRxtrkPKZnFuHvDBmpYSVBQDFA/H3fcvR7l5dngnkGYhPaEy4OBjh5qlI249+67YbeQ33WaPFpODeycuZUksnqpLFAaJLKX1WJFVVUp5fla7cB1cvvtt6O8NAdmaqwd6TminBUWFmBuDaVFPtWFlDcMFgsdK6ROjVvUT5yxbTY7FsyrJmHgJ1F9APv37UdLWwds1Gm1p6ZjoLtP+F/L/dMM1WGKwSQe8QaoTuzr6RZ1IouOakrDe++7B3abjaIxTp3LfJSUlGKcys3+fQeonjuKwT4P+W0F3OMRjI9ypy0RIcmCJu4ZR25+HsqrKuFyu3Do0CES6gfRUFeHtVTmeOTTw0+ahHKiy/QGVM2pxvKVi6ljxilF+Y+EYD7FwzjVWX4/iVNR950znHhxlVcD0MGmjFE57Ub/sEvUMVGjBWvveQBzaivhIJWt6FSqbwtQkJuJM41nRT46euwM/KoRVRWVGOjrRyTCkmA20eKBO6RsjtU3whc1U4diOWqog2jix+Q6fpRbhpW3r6D6TAuVRgwLly1Cis2EpoYm7N97mNL4BLV31KnPy8MY5e3JSIjCStfEKXzULXzgwbuRk5lCAjPhRDKmkslzCS420hWkjurIALUB1NFev349bGaqbBPWaqgDUVFVjeERqhcGx8h5rX1y2BxUf83B4kXFZMtAnUALifdyZGRmYtmy+eRvKm+EMzUVaenp2lQGfoeA8o+J6t87Nq7GyEg3jlB9wnm5m+o7B7VV3JkcHxtL3v6i8BSA7MIyLCExVVqYQ/FE7Y/NiXLKz+tWlKGvox5d/WOIUJ7uam6nPOnHisWLMK+0CMloz6U6ZsnKRQhFAjjTPKiJeoJPr1y5EjVVhVTmp43DXSJezSRA40E/jp/sxG7qFKZl5WDj6hoUkpC8kaSlZWL12g1Urz+Oisq8qfS60bAKuSlw9Ux9KeQWV+CRpz+GT3/hs/jCF75A5vfx3Bc/Tr2wIry56QA1Uu2Y9HLvlrrbKhnqdSlUebDHRf83HqWtZvSkSlhs8KjP8NAAdm3fhldfehEH9+zGgV37cWhPK9pafZSRyD3RoCULOWfk5L4G14tRKkB9/f3Ysn0vDjePYdldH0ZtzTykUIES6UN2PJ5xHDu2H2+8/lvs3bcJe/duxqFd9WhvokwYInsxHoHjjMdD61Rp6xzUg+HHo1QF8u3Iu8Zkbr0Mhw7XI2ooxZOf/hqKMQpnKIaW5nGMBZx4/MENGOhpo3AH4fN2YdxFhSW1gARArpifaOPes55aSzILF1dRI09CzeWFGrVQwc4nQWxEb28LidlJEtnjGIoHMWf9cqwomYuJ090Iuvsx3HMcHl8M5sxyWNO1OWQXI6CzIaB3iMbaSvc2cLrF7dQoW1GSoyDDHER7v2dq+ntSSLIxk/DJL6/AhNuDTW+8ib1HD2J/22Ec6TiGYRInYUqUuI4aLZ4EH7dRj44FHcVt0oHpcNyyObehH3EUF5dijtOJ4KEjOPzSGzhxlnrG/Ii7vRsBaqQ4qi5q6JyPKs2JgTEUUAUqsuIMO9eEOknCsBdj1IEI5syBJatExBc5S+mko56zCeuLa5DljaJu0I1ONYYiapRTSTC5+4YRcEUQ8FAjTPG7bt0GLKotRuuZI4iGXfBRh6KfGnhLZhUsNgti3iG4fQH404rhKNTmWJnjVHooXYShxowfzfAfncoFg8eItBEl8Ycn9BuGyIxRW0gdCS48xlH09B/Cm5tfw5atO6mzdlg8Mj5VX0cNwQiHgtA6O4hbyFAFquNHOFeR2S9CNOBCf9MR7Hnrdby2aTd27z1K5e0YjtadEasHxKYpDOFtkSYkJ6hMeIJBdLiMsOXWIpuEuohnSkAjGUV1U2M+TtVKDJOkcscmKZ68YeRn5yMvK0s4aaC40IkmZZIayHIxSj866qP6gQ7dECi+9E7YHRkkFHlUhAQrGV4K5AIo3JMTVAeRQNv2xhvYuXUb9uzZi4P7D4q5ax6qJwwUGVoXKRFBSaMzILOwFEWV1RgZHMKrL7+OxobTONPQgMazp6k+4Bd+uFCoGKJ6cPfOnXhr81vYs3sv9u06jPqD7ejvCkAXo05HhDot7KwQ8OxR2mopQQJgFAf27sErL75AHe79JET348iuXejq7Jqas5gkRgI3Qp0aMbJDl3MOokyJGHUmdKpBdHZ4+oI4N2VsMJgLUVhchuqCAA5v+zFe33YQRxvOou50O9r6JyjNYlp966fOwtl67N38Jl7ftAu791Ce2ncCR+rOkiieIA+wvzWfzw7sEhuOl4Awjf1+avErkeN0IF2vkr94kIRLPtnTeym8/NJX4jo1iM6mU3jjhTexa/Nu7KV437unTrwLMDIyRvGlIGBQEOQMT4JaGF7yTjytSqAVBvrBscnuXgyReBcISq/XS21DL2KUTsPUwT9y6gxOnmrAScojp2kbDIbQN+RG34gHEdH0UkeN7sXlnsfBeSIWG2daOvQG7hyoYhRVZBEOHm2iVPfwSGyc6rbJ8THso7zy2muvYueOHZTX9qB+PwnAtiH4AtqA0Xk+nHEgrFgQpDaWeknUxsap7PJTKQfsditqy6LU2ehCa7cXIbrxmfYB6oxa4R0aQu/pU2g6dUrM8Ww4fRy9/U3kRggNLQPaS3kJ/4r8Rj+Tt5z6zednYAz1o6fhJJ7feRbDjkVYcftGLCrLusio6mzD+YnrXMpT0z17g7lpYlJAgbxIGtBBHW6/4y5k52ZQpdaMoaERsko2uWKjSl2hFNX26S/1RGIk0qI8x4QM/4uFQ9i9ex8am7ux8e4H8MU/+iP8/pf+AA89fC9amxsQp26wPnlnFijsGhWiOLvHh0UC6DDp82Prtm2oqz8m5lfwED43KuI0NVQx1U8F6iT27z6I2jkL8fWv/Tm+/vU/wxe/+hUxAXpykufp8Zt/1DRTT+h633Xaf2A/Wlo78ZGPPoPnPv8F/O23/gIdrY340pe+gqc/8jE895lPIcsewvFjJ6hXHRUTejl+ePB0qsYVSS0Ug+ht+n3UGJLdzKx0OFJMGBzoxWBvPzra2lFUUoIUhwnz585FP/XUvZ6gmEfHwqSgwEm9MnLmWiHPGMxWOBz8MoBW0SXzuPAeodKPZXesx8NPP0WNqBW7du7Ab37zC/zkR9/Hzj0HMOnn+VJaeMQ/sZ0Jj9eeKz1cOSbrR5XySmZ5NVbfdx+WrFqOobFhPE/u//LnP8OPvv9b9PaMQE0OV8+Al10anfCScWNORRlXUW8TagBCYUoLv3jUqY0caceFQOa0okN8NOJzwaBGkE5iMj0vhzowbgwODmB4zI1hbwhlNTUoLiqEh0SFa3AYPT19lDdV5BdmUtpaEYlSz5/yBNf23BBfFSLOzrfMcclZmI+GSXm/8quXEfGH8MTjj+C5P/wiPvb7n0fNgvlUZs+SPeouzmiY3g6ugWEc2n0AY2MuPPPMh6ms/QG+8Ad/IEbWuzvaRBxqhXc6fH+ORxYg2lvCWrimw6Wf84goLGI5IbfbJcQpjzyKkTqqLfhpCP/iY+FIBCESJ5fIKu8s8RiaTtRTA3wQ+SXl+H2Kk699/ev4wBOPU0Pvx8TEqAjhzJjR0MOeloXVt2/A/ffdA497gsrDb/HrX/4a//zP/4wzjWcQpro0Qo381i070dUxgHvvvhff+Maf4E++/ifYcPedOHToAEV7lOo3ftxOdzkv38SpjgmTnaPYd/A41qy/G1/5ylfwh1/+Mj768WdQV1cn6qrzSZbtxC7DzvIBrii4zF+Qhhr5JaV46MMfw6Jlq9B4+iR+86tX8KPv/hAvP/8iOrsHEIyqGB8Yos7+Abg9k/j4sx+h+vpL+P3PP4fsrEx0trdQgnM+Sjg463BHjfMSt2E8d1GrCc/d7lzAktHIc51/9cOfUN1pxjOfJP9+44/x3HOfEXOZezraOUcK+1fNtLBNj0b+rZUDLa8kR5k57V0uNwYGBvDyyy+TyHsFv/7Vb/AryiO/+9VvqW3keeZBWPhxA19CDiVvMd19DTozrc7m81qp00wkHEDbyXr8ljr5t1H7/+Wv/Hd87Rtfw20bbqMyF8QECU0mef358NGLnxFQx0kxO0jIcrdK85lv0ocxcnPrtu345S9/RWH6FeX9X+G3FLadW3dgMhCE2UCdMWE76cuZJI9feG5gyIVNW3bDPTyAFB3V8VRWw+TFW6HauBFwWt4UuEI4vyBNg+cKkMnMpMiPtCIYHiGLEUqMIBVFPyVuCHpqLLnHDn0uXPocuMwq3DaqvHRRuId60dvngy13DUoWboTPaEDMbkJhuRkfemyVeHxrFa/6U8amnq54UE49mdjUfBLe14tJ1B7KUJ/+/GdRXqzgwK5fYry3HUY6oVd4Lb4mDA51Um8sB3Oq1lGv2UlXpkAxRfHp5z6KjCwrjGZqxBIt+IXZ7eooLipGaooNf/7nfy7MJz7xLP7qL/8Cn/vc56aOjbjDyM3Ng8XkINFnFUswiLkYol/FFSQXdj1V3j6kOi1Iz0yDyWKCwwk4swIUx0PoaO9HV/cQnAX5YumBBXPmixdEBvtiONkcgpEEZl7+9Q3RxymuA64wxse8MJq04sRLQ7Hh6OFqNkTJ7rHrULtiEf74y3+Af/jLv8LfP/dHuKdkPlViJ3G2yU96iBpxXQxRPRm6kEcwrgQLAL4jv5U7aS6EubgCtz39ML76t1/FX3+dBPqHN0J1e/C7H/8aQR9P5qe0mmEm3AE0D/nh1VkxN8MoFhOeaeea4NFpZzbSUlPg4PlM0amxWpFO8biRGvIoDHoT5qVFUKyPwEzGREKe16Lrbe9Ax2gEI+nzEczMRE6aHVlWExpbe1B3ogm2rAw4sy0wkH2D3YIUmwMpqh66IDX6fIvLGI7T84LDO1PCkHfiGGiiDsl4OubWLhMrJExSjTuRbkfekkXYsGGD1hglL5kFegY8GHIZkVtSg7KKPHHMYrFg3bq12LB4DtIVFuRavjoHNRxxG4xUlh06HwwRFwnrhBhJGj13D1VEKV9xp4+nrWTlpiGqkohStTVmwxRerhO4px/mKSb8soLDDKpWbgH8GOg6DdWWi/TqpbBSXuCA5RbkYuN9a1FWkEa+T4rJ6QEno/BosZPqlgzctWEN/u6bf4H/+TffxF98/U/hzHDiv375C4yMDWHCM0Z1QBRZaZTWebVi/qieCm5xWS4+8uFH6bcfJjPPd+PY4pHGxJYE0zhd3zNOMVh4GwoW3StaHIWEh43yzNMffhp2u53snkNVeFUGShGyx/lQzPJUDdSZorqZ6nYexRLHL2Z0JqTm1+KRT3wB//K3fyrMFx6fj3Dra9hz8BTaxqkM91N8eRzILq1BUXmW8KndbsPGDWtx+9IqpFBYkgMGswO5xMP+XP+qFFYyJhMPMLgRjIcRoPP8XE2zo9lVhOEAqZhoGUJwLIyqVSuAnAyxhI4jxY71K5fhruULYWHxe5VoJVdDFGc2CXiKAE8e0+kpnum+UV6uiCo1k9lIwjUTtbVz8ed/9mf4mz//Bv7n3/0NmW/hL//+X/Dn/+vb+OY3vohHVs9BqoHKCeULfnmV52KKW3A1QEZH9QEvl8NPPPjFIq4eqBoXT+XYGKgzEqF2vuX0YaiZ85G3aCWMNi1vlMwpxnJyv4g6x1zCk2HQSAaEz3Bq8jZZDyTPURsfiSM8yp2bFCq34vkP6YtsFBYU4WOf+SS+8fffwl/9z7/F35L567//3yJcf/bXf4vf//AGpAq/c12ije+fi0kyIs343IWVQeNQHLnz78IHVtfA0bUTZ+r3oYM6/+cWG3tvQTn45pFMaia5FVBO5xEiXoomGKTGPTFqoCWf9i8JN1oxagj4rHCP/nDvymg0wmyiSoiupSY0YZdHmHiUkOcw0k6igWQ3VHJDjZKJcUbX3OcFwT/32ecwpzwfz33mMwgE/Hj5la0kuHi5HbojZSS2K0Yeyd0pX1FejohJQHSelQyfSGyuh+LiYixZvADx0ADq92wWc1feeOMN3HXXXTArk9hz6ASsaYXIzy9AWnoGcnJyqdcVQWeXV/hNhIf+x8hPu3fvEXMLU0jEMBazVROhVgtOnjyJluYWVFVViXP6dBuKSovFRHyed1ZcXCTm6VwOjlFtJJYb52SI4/B7PBju4jlZcdTUVAt7MxGCjBt1rsgSpFFFdudjjws3JybGhbvXDacVX0/34PdODToFBpsN+ZVVuIPicmKc52QF6R7TU4p/x8UjnpHRMVRVV8FsSVYql+fCME53F7ClpApBNDw4gIH+vnPxRduAz4/9Bw5QCVVQXV4t7DHz5vGLWAYcOHBQzCstryinG1HniBpEXqqEJ3WfPnMGc2pq4EyjngJhsTtgp/R2uyfQ0dEm8n8Svie/cHFu1Px8P7JfkiQfgfER8Zv+c3mKkR1uJFROd5H22iNyMeFfXHElyDJdxxeJpZESR6fD9xO3J3vn8hW3t3zPi1+TJNXpFPMMea7j6KifruFb8T257uDrExYJh8Mh5iD29fahp7sHFqo6tBna2r22b91GAl+PPGrYr33up+YOVxDsY80Ll/P55Ui6lUgLjoNpccNbLR0u7z5fw/Xn9DzB9cNnn/sshoaGKM+PUAeUp5VwunI+4cjT7PEbqCzC+f7Tr5+OSDf+IfyWuJYNxXs0yqOZF+Nc2C7Gxc9q4eWwTHd04caNqJwzl8IQFIajSstHWvwn4WtF3ruoh+ig8D/Z458iTGSX75W8GW1YhF1Nes6dNxfjE2MYGKL2Lczddg3OxzP9L5ou8u9UO5IgWc6uCeG3S/uPQ8WPs7ktsFJ9EwpGyDp1xFIcaG9vQ1tbKwzTwsc/k3nnAldFJJ/j0ndNwvbJB1TfscOct5IX8X20tLmyK3yRyKvkryn7tJ30TuIstW16vQHz51VSHapHTm42PF5ql8aHz0sHvorvJ9LiutDuu2rVajz+2Ao89N8ex8JVq8Qj9F2794oRckYLMdkVeSsZNq0safVg8liSxD5ttDi/0AbDbqmxKPmfnxhczMaNQVNZNwEDVUxmNQJrzI8U1Ytz/VOK4lg6Xnt+H0aGDFi58nEUFy2DJZ0a8axM9A6cwNG6HcImZ/z+5lZ85zv/H+xDPhR6AXPMgLTcQhRkKBhtfA1N+1+GLRiCgcRVX2sYP/3VXuoZhBDhecQGaib4pQPuIXpGMDLYj+bGNjSdboZezMWMUS9c62EVFVfgkx99Fn7XGA7vO4iB3hBSHAtQUjYPMLlwsnEP2eJFUsNQw3Z85//+HN7BKPTBFCjUs2ZH2J3rpYQE5bJFlWKJnenk52WKlyiynDnQqRkkKpeTkFiMnFgr3nr+X9HmG8QELzdAZeVH3/4exakHS5fdhjyKI5ETqVeV5iwmgZSHprNDyM0sw7raMvBsREXXgYLMfmymQtBjzEZWXj5yKCiWy9RhjpgbrvYT+O0vfqqtMRYPIjzZj8PHzuKnB6PImP9BrC1PE+unxeO8MIqF4oWXgKVGqWMQJ7//G5x8ZYsYddaRWI8EYhhpa0fc0oe0/IBYV1BlKRg30fbcw+EkooBOq8iSjRlndGtoDM0v/RBvfecnaD02DCXMIigKX9iPY1RRWvJyYXWQf/RUxOkiNlAmqOS2Y3isF4OhVORWLZ86N9PQ34ThPDPdMLzlDk+y155OXfICPLpuDmqMZ1G3/Xc42dwjJoZ7RzzYtWMvfnn6COY89Qjs1hRYYkbxckJqZSms+U6MuXugBvqwKM8MpxKB3jwKe4oHr791Er3DBtQU2ZFn42V2MqlXQGm6vAqrK3pxcNO/Y8fmI2JUgBv0of5BfOXv/hMH28YQoDLJo748KqKnRkQbHaGY0wJ3HkXzzTClD6Lh9D4MkEhLC1IvfHQSA0eOYdPWt8RIEY86X83gHb+IFO47Cm/fEDbVUTnkyjBxLklFEQnC9DD620+jvalPxCkL7p3bdmDLoVOYiHFe0h61aSMh2pb3MzJTsWB5KQLhQfzoNz9FgE7yyHZEH8W//+vPcejoMIxhK9IjqnhxoXpFJeyZBvwX5WHXJC+erKXqb7/3Ega6Ilg5vxq1Beng976uHp7PlkbxQfVDqAFDg6dwttuLQye66BznTjY8qsch59Dx/vQtQ1sewZp+THGguHIZdP5+jJ05BL+YrxrHQM8A3nx5B1q7J8i2GFcVx88zKi8XtRO/+cF3sGPrbrYg4K+HbN+1C4XFpcjOzUdBYQlKqlIx6DqG7t4z3DaLy7s6uvHzn/4c+hiPrIfJLwlxxfP1ROSryKIGuzyXymDPJnQf/Z3WSFO97e3txQ9/8ENq5HnRonMocZ4XadCc4H0+yOWFjE41izmTYhwgcU6YONXnk4M4snsL/v3f/gNeD9XDCYZHrDg7bIPNTh1osx61xXYUO13ob2tAW8uQsDM5OYm33tqO7QfPwhtLpRCc30uIubsQ7m1AX/sI6nsNiGdWIMN9Fidf/g5iEW1k0D8Rwktv7kdDC6fndJLxcc7ctnouyjL02PXim2g72qrVQ9QW1h0+jp/85HWMBahuE5lYh6y5hbBmm9G4dy/igyNi3qzH7cWWPQfx2v46BPTXlgsvDecQKvOGYbh9dejqa0BrRxfc1NGcs249Kmuq8eLzz6PudKMYteQqYWQkiO/856/x5q79GCcxFqG00UV1VO45x3FNR6Ene5rhOpXbWl7dgdKQjsUomsMJE6GOp8mci3lLNkA3cgy9R/ci7NPSsb2hA/t3nUJn94jwpZaXk3A+Y8NpZqC2KYDOhgN485Xn0XDqJGXBIAITnag7egg/rJ9E1oZnUeWMI4OuWbZ+HirnZmH7Sy/ixI591FTx0yEFE64A3th+DP/nP36BUIBFJnk2uYK+gPaTRqRpIu+fN3LJoWdDGC1Y88jjWLFgLvp2bsORTW+KhcT1xjiqUwKYaNqHBqrT+Gt7KrW8W7bWY+ehE+inuodfCuT4U6gNNymjMETHEWwO4fSORpx1j2GIH53T+XPxDEz0tOCt7/8D/uHP/giv13fjnfqW0dXU9TcOqpVaW1pw8l//L0wk7MwqP45VYCRB6PP6cN9Tn8CKNXORyuuFKFEsXbKUEjqMnTu2of7ALugpR2bbHXj44Ufwi7eOaw0IOatQAtz30INiwu+2LW9hz549IgNmpDuxfv1GNLx5SiS3yICUGRYtXIxt2w/ixRdfRFV5BW5ftUBMWOdh+SQ8TF9E5xYuXoyDh44iEgngnnvvov0lopfw6ssv4r9/5Ssw6AywhXT4yNNP47svNlB46OKEM+dcuw44YNqfS0Nxpyh6VFRX41HLY9ixewf+1z/8bxjoWK47DRaLGV/68udRVlEOszmZ8RUx3F9WWobGE26U0pbf6tVOqaioLIPpZBsyi4rFGppX8AERR2FBAcoXLcfu3bvxix/9JwzUYTA5y7Hhjsdw951zyX1yZVrcJrFkZ6OkpoYK0iG8sH8/5YMoUsKTJJQs+OQnP4G5lVWULiTurugLrbKaCR9axKN3W5rw/e/+EnrrBKKW03TUBmfO3fjsJ54Sjc75kLibmCDhMom8vAwUF2sjuldkWrqfY/oB9o0O6UWFeOTJx7F1z2nqFP2QKgwVKbEwjDYrvvonf4LSnFxYjOcaDJ5zym8Pc1oWFmSitJjTJAqDyYjSmioSlC3IyMhCXlYOlSmRi4VJyc7Chgfuhc15Fi+++qb4hnpc5xG97zuf/jyKSKAa9CRERLzRn6RXRUSSmRGhOiqvn3juU/jRrw/iZz//OV4h+w4SCXmFBVh/+3qcPNuUsHkZqJzmFhaKUcM3Xn8Ne/cfxupHPi+yBleK03GQ0L/9vnsRpnj6z+/8ADYTlWdjCPPnL8CSZcvgI2F5Kbg+KKXG8FNf+gN899c78Mdf/TOY4KVQxfH0/Q9SnuL8TnmG9tnwShBPfOhpbN1/Bv/jf/wV1TNaV7fCqMOzX/wDFC2sgYnX36GG6+ohgU6dgbKyMrSeacPLL78E+5EmPHjvHcDUOswzM8yMSLgoCmqXLcV9qhW7SWD83be+RfWeAflZTswtzcOY53JvJsdRUVuLCZ+Kt7buw6Y3NkGlTjTf1uq047Of/SyyqExyWjz4yIOkbeJ49bVX8PwLL1M+DaM0144PfOBx/HyzNkc26eb0LXfmblt/O8WhHq+9+gYOHDlBdWkMadEJPPbYY2jfNiDsvV1MFgsqa+egfzxIafaXlJe1OoxH3VevWoWV65eKtYZtqXm4/YH74Kd89B//wfmI6j9TDPPmLcCyZSsoH/FDyES8UzzOmTcP7f11+M2vf4Wiylq69lFUFxfgk88+g5/89Kf4xje+IaznUxZZWFuD0nBCQFwGg9WMZ37/9/G7F/bid8+/gF9TB0dHHZuFcyrx6COP4q399ZpFclehcH3uv38Z3/n+bnz7/3yP8nIIdocJ1WUVWEr5fiJ6bkRtNpg7txZbtmzFT3/6Ewr7Ujz44F3IzsvCQ48/DsfpHnz/Bz+Y+khDLGLB7bffgflz58NiMiMe06bqJGLvEpx/dnqON5AblYuW4DOfduDFl14SC5fzgvDzSrKpjcpEoeVqVtCIi9Uk0gtyxQtjv/jhd2CKeGF0FuCxJz5NQr6UH/YIeHm7R55+CoXHWrCfhPkbr78hRkZVxYy80rn40JNPiHylwT6d7ttrg1doWL1mDTzU4d6xfS8mFQsefXAdFm/ciP6BQfx/3/0elVvq/COIxYsWiDpR1Z17OcGYkoJMCpd192F89zvfFW30x+d9Eump6Rf4ivVIJBxCKBhEdPoT0xvMTfsCTiwcgMc1hgn3pHgjlfOYtl4ie0pL7czcAio4FrE0B1fy/K1XF/U63RPj7HE6plCDaRDLCwyPe5GTkw2blUdUuIesg9vtEW96aoPBJFKpwU1NdWKA7BYVFcBmiJGtOHz+CIlUL3gyuJUS3ZnqoAovjLEJF1LziqjxNsHAlSzZdU34hLsWOpaWRgKN7POyGvwGaygSEpUnj8gUUGboG5tESmoa0lL0dCxC7lFPg3remempVPg4jOSvGCU49X46RgPIy8+B3UQ98/PLmwaFNxycxMGDh1BVO59EX6l4DDU+0gdLCgkHKmhpDhvFh+ZuhPzCS3GM+7SevynCS/SYkJOfK+IhSZziinvFk5MBEbbUVF4cXWvdeI5qhMLWOxaE0WpHptMBK/nvcrhGhxEOBWGxp2DSz1+E4fVBVehNNjjSspHmtIqmm4kHveJFEkt6HmwOB4wUd1GqzCc8bnj5JSLKmjyCreM0JoHKcW3gtUYDAbHwtjUlleLWRg0Vpy6Fg/MU54+IAXm5meBVv6Jkt3fMjzSxGDgvVBSDy+XHOIWVR4LiOl6Umb84kyGWrEj67RxRMcHcw9/2pp5nRnrKjHGLixGF3zshvpdutGeIMPPi/PxoqqdrXMRxair5mxcUpXzFXx1yUTkYJX9xOvOqBPwoO7u4EEaq8MTcYEaUjzgmxl3werxUNniJoixRFvTUa+bHGj3dLhhJRGblZoivknBu0LIT3ydMnbQAhsd8lOZURhJvVmfll8BmM1L88zdlRxGg+LNSvrXTMU1gqYiFfGIUU59SQBU7pZXKeZ3XPXNj0hek/B0X/uRHZPy1Ei+lY3ZxkdZxmJwU0wRScnPovF0scaPFcwxRctft8mDCGxSPxZ1ZhRQ3VN7orObvBPySB6UvL+Ux4uaZZnGKGxLelAciql48MuVHzxxmD5VPP+Vbno8npnNwWCmP89STvjG3eANVm98Xh9OWgl/+4r+QmpmL+x64n0R1pqg/IlQJT1CHlqc+KDzfjXCQ21lUxxhJDGhEEaLy5aE4VY0OZGWmkr8TiUX51E1x6aW4dKZTXFqoXNM5/rKNi+oVL7mtmKzUQUtHilGb0uPILaZ0sFA6aPWdm/JEwB+mdLZROFnQqlBJPEyMjWEyZqM8ng4TRTrb9VMaTJC7AWpAGDOV8RQ71U3BMAmSdPKb48KRA1FP8rfmA+LFJl6ejPe542Ck+q2Ayhz7WTy9obvw9875ZQyet8xjT/z1rdT0DPSPBajuzUGahRquaAR9w15YKV6dKTyvVEtFfszIdaTK8wHJTQPFP1/TNxFEZlYmlU2yROVsZCIgFhPPojqItDvBbgbhozTt86jUyOaSAExOXEqilQuesuDx+Cgso7R/LvdkUPvgcKYKkc0vYsXDQcpHVGdTuvEAoJHikPNRVFXEEjgiH5Fd8pBI33FqG3gJOxN14tIyMmGn9I/5gxiguitCZY8xUzhTqcGfpCjkj2GkU12p+Z9JFuAEiXgfpbLD+YDXZeQ4SeGPHVAncpzCas3IQ6rdROKCHCRx0D9AHdpASNTXLDoclLc5hBEq8xl5ORQuKqVUzoaGh5BFbQNP8xIjgGQnRnUpt5kxSsdU6hwYaJuMHb6vhhYOH7nBy3qFKN/YrA7w19KsZqPodE74Q+TnUVHWtet11HGltKP2kusyLjchn0fkW8WeiYw021Sem6QwcZ2VSu7xnH5+EsXpMEFpMBnRITc7AxbxuAQUzjAGqW1LPmZ2UHybKMwhKudG8lN6mv0idbBmd3x4jIo71UW8PiWFO0jtD9ePBpMFKZkF1BnX6hYNbtMpzImyw1PqBIqO6ikHla9zy5jFqZ7i5ccs6ZT/KJ2MVK+J5OVF3d1U11PcpORQG2XikVnKxwMDiJmo7qf2wkJ5g+OLV4EQZZ/aRTu1AVmZaXSQ2mmK07HJZKdPFUsmURAorSm9qH1ziAEO/jrcJMaGRiiPkcahNMwtyYXJyHlEcz8J16necf5WeATm7FKkOsxiBY8bzU0Tk6wX+cZcmEWbxrFxfg1xAWyfr2OrfN3FoUIhCjg5JuZaEgnLySKQROFGhoIfJzHBFag4Jv6egx/XcQzxOpYMT44+z9Z0f8y4mL9MwKe5kZ3p7kVhS9Pdmwmda2puEg1kUky6JkZRXlFNYaAMdZH7JHS5pkPEj8Q2SfJ+V+PBK/nvmkm8dCIeDyTTSttM+fs678dpJpyYHi52a/r+LUoy7JdiepzMtHu98XUxuE/Lj9u0x950o+n34vxE+3xYnErGN5PwAz8hZ/iJwdtmuhvJ30mHuZAyifudD4kMalT6W1pxqK4O9zz5JFXQ50Y4try5BUePHMWa29ZiHRkeYeGwJMPFzIr/b3WSYUyEORl2nhfIDVeyuUoe1y7gHJJ4gYS41CLKkluHc+l3cZKz8LjMT7fKR7k9Y8Qi2JJbGNZAJNYpBXkBfeadSLObKia1H+SJqxSTTNKzly4T54LDAutyiMfYQnWwvYvbZdfYnJudd3k3p3Pu2quEnU7e5hLwt7HPE5OuCZSX89cezi/87w40gS5iiDPEuy8AN4QrVfhXw2yISi3/al2wC3IXn6RDydtczMuXO3fNTA9P8vdVisk49f5Hezuwf88+tHsisEz7ni33O6urKrBo0UJkZWvrSk7F3SU8Phtx+26BH19Pn4N8Ppr00HLINdRzkpvG26lbZhY7ya3KzRGT77ryLyp77ecl0GxcSUhqkJ3Em+KXgs9okaS5ey2cu5a4tkuvAW7m341CkuFnCGzI9+/OALyn0fLvJXJX4hBvLpV0lzv3TqLodUjPy8TK9WtQVlaKvPz8KbNi5XIsX7kCmSQkNWHEFySM5DJCktHyBtdx77qGRHLNyGIhuRw3bWSSEYOCyRqcc+ks1khX0wN7J0cYkhPUL1s586kr+OnCkUkXKsTIpOS9wq0yMnnLkQwTbzmOkoG8wsikGAGP83woHfXUbeLopRDOaj8vyftpZFLy3kLWLe8H3m8jkxTexPsE7wtYTJ5741EikVwzSaWXbBCn7yePzUSco2pOZybD3y4+/5KLGiqmlzMSiUQiOZ+bJyan197vA3hE8vKPjCQSiUQikUjefdxcMcl3l2JSIpFIJBKJ5F3LzROTN5h37+Mo9vhMz89eYC7m+jkuf/bWRfPzu9HnkuvkmvtlsiMnkUjeL1B9lxi8eqdqvpsvJjmk/ELvDfDJzLlOM82l4FM8p1+sMTkLhtfqu5LhOaTaSjn8aaYg+YEn0NL1dEJVouSOtsDq2yVK94rwPRP75+AjvGhxRPtJZioO+DTDcz6TZjbgcL9dI16uiJJ3Y2IdtORaaO9mLhbMazXvaZJpnCxgvH+pdBd2qHKJG4ThZU0uZ97zcSd5XzOznrgeI7nVofpO4SXr9eLFm6mPXtxg3rMjk+81WlpasHPXTvGFg+n09vSK421tbYkjEolEIpFIJO8cN3VpoFsVjhAe0GAuNeBxLUz/xvelSd4w8UkzlUdS+Ms8cTS3nsWpU6cxNDQsrESjUbFEUG1trfi+KJOXl4dFCxehqqpK7F8KHpVk3xgogOf3JHg4kj/pRP5QtUWdVc1prUfKP6aHYzbmf85GN5dXnSajKjoyeuHPd6onJpFIJBKJRI5M3jwuKcYuPM7fAufvCe/YsUOYEydO4GMf+xiOHj06dYy/q+t2uxNXSCQSiUQikbwzyJHJi8ARkhyZnKm2ryeyFPHVdv4h9vgPwcfI6OkOPLiWGAWE+Pg8HYgZKHESd1fiqD9WD71RW4A0GAhixYoV4pjJpI0i8hqWSxYvEb8vx5VHJvmsNj9TVez0V5kameSjPK2TvSp8wqOCsTDFlYKIwcxHYEzYvSrkyKREIpFIJO96pJi8CBwhSTEJVcXA4CDe2vwWQuHQeU96+Xu+y5Yth8WiCalLIcQka7XkaCRvyKFYOCy+YrNz+06sveduFBXmQW+IY+u2LXAN+7Bs8XJUVZdr9tnMwjjylcUkCbO4H8MDA3j9rSMIhSLQkV/59pkFpViwdDEqSvJh4iBRfIx0tWLXnr1Y9uDTyM9Lg43CmAjllZFiUiKRSCSSdz2zIE/eeygkqBQ1jKDfiwOHDuP5370E76Qfubl5KC4uFiZFF0Lr4S3Y+drraG0a1jQNXcuSjOUa/+PfPJIXI4EV0/OnjUhAUoyrwtA+K9P+UTTv3IuuSRcmWBRFFXSebMLR+hPoHh9FSA+EyH7kqhXa2yNM4rHxZBteen4TYhSA/Px8FJfkICvLip72s3jzpRexZ/c+DHoCCMciCI/0o+HgXgxNBhGk8FzLG/DXTUIsahJXIpFIJBLJzUSKyYtBoi7s86C14STe2rINdocD9953Hx566CE89LBmHn7wLtSWZKD7bDP27DqD4YGAdum0UTEWk0JQUiyfMyQoSQPxb17EPCUSR0pYhd8ITNJxlU4uX7Qct21cj8ySfE1IkomSueGQ5yc9k9i17QAGB9y45+678PDDD1J478FDj9yN21YvQTwwifb2DvgpnLx4kUmNwEAmotOLhYWmBf/GIIWkRCKRSCS3FPpv/tU3v5n4feuhBoGQD93dPThztgWdHd0YHXYjSgrNnGIXo1tTUw1nk2gIY90t2LF5M0bCenzquU+iKD8XBoN+av6gxWFDTn4hfOTFhuYO6Aw6lFUXQVVV6DzjaDh6BDFLKrr6BtHefBZdHW3o7BqCxwuYrHbozCSHojFEBwdxpP4I8tffhZyMNKSCHIxMwpSWhdTsHNjNCgJjfehpaYXbF8eEexKnThxDV1eXMH6/Hxa7HQYjqdF4jPwXFfMnx8dcOHbsGDo6OoS93t5epKdnQM/2SMTqKBTny7EoYqoPw4N9ePP1bViwYAGWrV0Dg9lEcRyH0WhGQX4pMjKykJmTg+LiIphiIfgHO1F34jgq190vru1p4rDSPbv7ESFhbLNaYaR4Y7/xY/RIJITenn6cPH4cPZ1d6CYz3DcEh90Bg9WijcDGI/C7h9HV3oaeMQ/8oTBO1tejS9jvpbBNkMC3w2QyUx4JI+QZQVt7N870TlD4LEizafNIJRKJRCKR3HhuaTEZnRxAb2M9Nm/ZiTe27sThQ8fR0tQP12QQOqcDznQnLDdggCriHUdX/W4cOnQQ8+59CnPnVcOUkF5JMQmdETpbOuImBYNDZ9A90II5S1bAqFeg72rBz/7z3zGIFLT3jaCnvRGDPe1oOD2Irt4orM4UOPPN0MfiiIz04PDxoyhd9Shys+1wKBM4sPl51DePwJpVgKJMA4YbD2LrK6+joS8KlyeAlsZj6O8fQFNTixglTM/LhiM9DQaFBGHAjcGBARKopyi+DmN4eBh9ff1oa22HSn63O9PEHE+DwnJyOhE6P4Hx8REcP9oklhyy5uTDkZYKs85M4pNiQNEjKzsbBbm5dIwyD4lu93AnDtcdhTm3Cp1tnehrPYv+3h4ca2jDuCuELEqjzDQH3SuKsH8EHSSsd+06gKazZzEyMIIBDsexBl53HMaMdJD6JPEawFj7CWx7603sbOyGPxxG+6kGYbenox+njjfAaLUhLTMDFkMIE91nKI/sx8v1fcjJK0JNgTMRJolEIpFIJDeaW1RMam809585gVd+9zzqzrTBF1ahqgp8/iC6+/vRO+bB3Np5yLBpbzjPJt6xETTVH8LQuAdrH/soMtLsJKU0EZk0yR8G8qtnpI9EXRcKKpYii+waJoZxYP9+NLkiWLVuHR6+9w5suG0dCas8DHT2wkuiqnJhGUwxBbHBPhytq0Px2vtJqNlgh4+E03GMhW3IK69EYZYVnoFOnDxxFgN+CxYsrMGzH/0g1q1bi7KSfBzYsx06expyCgrgIIU33teJHdt3o7FrAB94/DE8/tgjWLNmFYoKsvHqi79BzOBEdm4O7BbTjDkOMej0Kgx6M4YHx3Hq1Am0dg6Rn+0I+0LwuL1QDAbozSwqE3FAYtI71IUDh46g02/CQw/dj0fvvwfr198Oi8mE5jMNIM2KotIS6BRKz44WvPnqGxgPAJ//wudxxx13Yi3FTzjowc4tm+BXTMgpLkGKOQ7/WB8aG9vQNhpFaUkBvvDJZ8nuWixZPB+NlC9OUp7IyslFfo6TBLQPo+4QwuY0zK0uQ0mWQ4RIIpFIJBLJjeedmIl3jfDQ3yRJSTcOHzqKgf5xqOIzgwQv6K3zIBT1oavPhwNH2xMnZpc4jIiqqXQ/J9LSLj/KlaIEUawMIz3ixeSEXXuay2JYieGxJ5/AoiW1sDtSoNNZMTfTgCWWXphGG8UjYJ5zqPLj5XiYflG4L0NqWhaW3U7i687liSNAWb6CkhQPCWw93CGStWoYPW2NGHN5MH/DAyiaN0fY0+kUVFaY8ZH7F+Bkcwe6SCTze9vnw4/JU+FMy8fHPvkEFi8rhzXQgdd//O/4h2/9A/7xf/4/vLnrMFrHXCQGQ2RfIR+z0YnH9k9+7DmUVhbDIJYvUrC4yIpSwyDGhgfQ5YtjzONDd2MnXK4gHvrop6FPT2drRBx3P7YcVQutaGnuRGfbqDjGnQmbNQ2L5t6Jpz7wqNhnY0+bxMOPL4DeGEZLWy8oKEgvXYzHnv4w/vyzT2BtbR7Zk0gkEolE8k5xC4pJDX/AJx7RBoPBxJHz4eM8F/DGoMkk3vL8w8vCw3Q6AxSdHopeEbsJlTSFjmKZTpMdPq+5nFyRifdn2r8Ul/JJ8uqYxwvP4CDiqoqcnGwEAwEEpkwIxSVl8HrcGB0LIhy+tGsWqw2f/9If4m/+8Z/xjb/4H5g/fz7dW8XLL72Mf/zH/4Pdew6QcE1cfyln2FfTzvHcTl5UPSsrE/kFmZqfOQ7EMKeC9Rs2wG63Y3x8QlzGRuV7JAOXsMdU1SxEqjMDXZ2dGKLwSiQSiUQiuXncsmLySuhIoZnNl1/f8XpREIFe5yJFM4GxsYnE0ZmwsFHgitnQHMnDkN4JZ+YkCcrkOYraxKLjvMwkvzQUifPMQV4P0UCnDSTPFKi0jWkXXRZtOR2dJrTEb/oR08FIhhc354XDg5N+BMa9aKw/iH/5+6/hy1/8Ij7/+2Q+/yV8/ov/gC/+9U/Q29KIyEg3YkG/cPdCyM+xNGFUfSrseZX4g69+Af/2n3+PP/29DVgcb0Rb3U7saxuFh/xvihnID3q6f1SMHSaFoEHV0Tk9dLSj0r9JfwwjI/xykB16sjsVYg4HXcGC1+V2YXwiQMKTLhJCk01yIXV+V5xMLIc2WTCbLNAb6Y4K31UikUgkEsnN4pYVk3arA7m5ubBYLIkj52Oz2TBv7rzE3uySmpqKsrIyBIMBnDh5MnH04gyPjKKvv5/8moOy4tzE0RmwYCLDG5ZF5z/S1kYrr5tpTlkpTlLI7/yN7q9+5Sv413/6J/zLv5L5P2z+Gf9K5tvf/t+4+661SEmxJa66AuQ3fhmHH18vWLEc85YsRjQSJpE9nrBATA9OEjo2/X1xq9WKjIxM+jUtrCwYE9caDQYR75kZVn4HR+Nio8J8SE9CXKVYVKWQlEgkEonkZnMLikkSG/EU+uvEmo1rUVCZB70pMcIHM0KKE2Z7GhbMycHyhVni+Gyjs5GombsCNctux4ED+9HWOYQYr+A9DSU2jsjwCXTW12Fi2I4Vi+8XSwdpsOJJjtMl5BMHS4ws6kkj6aEmRhOhGOmGZKaLrOtEsZtgSDHAF45j2GuBLSODBBybdGQ6TcJk8BvwFjN0FwjYEHlwCBMjrfjBT1+EN0i7M7ScIWyBPpiGWMRE/k9OP0iMDoqv2ZBhZ4VJxEHiXKpVQWFKEJOj7egYDEGsysnP/6NRIJyDuv3DiIa9yMwyaJmSnSIPCMP7Ij7J6HvR27sT7tEQinNWIDergNzhUdbw9CiXSCQSiUTyDnGLjkyyKNMjp6wUH3jqg7j7nrtRUlKC9MxMVNfOwyOPPoTHH9kI+w14k1tAIseZk481d90rvgDzox//FHX1pxEM8qNWjeH2Fux4+bdoPn0aC+YvwMKFlYkzTELRCEE1k+SLK9rcSW0e4Exhd50YDKiaW4Oc3Dzs2F2PQ0c7EyeIeAxvPP8bHDl8DJOTF3vErSIS8qG/s40E9FH8y7/8B5qaWxGJnHtV5/SpM2hpakd2di4qKysSR5NcXsWZUxzIry6D02HD8y++iglf4gpVxa43d6CzpQdV1RUoKy0U9hl+9H36dBNeeeUA7bHtOPy+UWzb9jr5S0VVZS4JZTOGBvrw2itv4Ac/eB6NjT3iWolEIpFIJO8Mt/Q6kzq9GanpucjJL0VlVTUWL1yAZUtIuM2tREF2Br9/fGPUMAk8nd4IR2oqCvJSkGqLo/5QHU6dPIG6o0dx9MgRHDzRhKgtH0tvuxOLl8xFZpZDk8DxOMJuF3YfOIzyxWtIjGbDZtSL4yEScR3tnfDEIpizdCHsih6hERcOHDqKOWvWIjc7FTZdFE0Np+EKGVBUVo7C7BRMDA2grb0fqbmlmFddKJYpYpRoCAcPHoEpoxRl5SXISLHB7shERk4edEEXTh7YgQZy6/CROuyra4abNOSCefOQnZkOg177jvU5eN1JC4ymFOTlpiHqHkD9yVM4eeIk6uq0MJ/p7EdW1Rysu3MDSgtyYY7F4Boax+ETjZi7bgNyM1JgJUc5TXwuLxrOtEK1p6GsZg4yUu1wOJxIzciEa7ANpw9ux7H6UzhSV4fW3jEsXL0cq9asRA51GEwIwzfSi56OPvhNWcjPy8Oura/jyJHj2He0Hf0jcaxfvxGLF1fBYVPIDwM4erQBp3vGUFZRhrLCbC1IEolEIpFIbjhKPPlaseQi8OI9bvj8PtQdaUMwGELy7e4wCd388grUlpUgxXBOlvE8vohrmARYHfIWrERWTiZsep0QmiGvH30d3fCSCCxaVAuLYkScxOSx48dRtGI5MjJT4YAXnWdPYyJsQXZxBfIyzPANdaGzexjm7CpUlBeQ5NNQwi4cJ6GnTy9FXnEJ0uxmiLHaWAjjQ90kJBvhj5kpDAoCihlFRUVYWFUMm/lyX4iJQQ1PYKC7G40do4hOe7yvd6ShqLIC5QU5sFA8qJEYPENjOHXmDEpWrUBGmgN2ssdiMjDhRVtzK2I2K/KqKuC0mcU1kZAf/Z2n0NraSnHI0xQUmNOyUTu3GjlpKSKeSMmi/8xB7Np2GMMp8/HIQxvRcuIonxHhSHWmYem8SmQ4U6CoAUxODKGlawgDAT3mkP8qczOEXYlEIpFIJDceKSYvC0WNkpgbGGcJd0408rLqMdrVk5XzH7bTgZj2aDiqJ7GoKDCwM3w8MadPpeuipJr4KbgxsYZmWE8H6b9RDdJGRVQxibe+9fEomTAd0SOm095eT95PUXmeYxxRnUnMx2QRx0bhxS5V8gPP0aRzDPuX0fxyOdiDiTDrLhdm+kP/OUwsViMJTxmF++wG7dAmplPEd8j5rW5xDZvkfEvFKuKHo4DPsJDkuykxN3obD2D7tqMYT1uGTz/7EIlsjWQ4puxyOCmOYhRXUZ1RxKn8mKJEIpFIJO8crD0kl4TkStyqGSFdzsHaySwE0kxYbZGcIWOg35q4ShwnYQUSjbyIuClO54RdzbAAMrFdhQScYqNrDWJfz3egfZ1iFm4J9xIGdIwFH7+ywsdZ5GnTNElqsRAkQZq0O3Utn74s7E8KL5sZts8PM53j+Z68tibdjv0q/J88lwgrB4+PT13DWY7CIwzts99Y4LLfWHBq4YpDpZ2oTocIhZGl+cxwnLPLLzBZ6T5G4TcpJCUSiUQieWeRYlJyC2KELSUXpRVzUF2cLQWiRCKRSCS3MPIxt0QikUgkEonkupEjkxKJRCKRSCSS60aKSYlEIpFIJBLJdSPFpEQikUgkEonkupFiUiKRSCQSiURy3UgxKZFIJBKJRCK5bqSYlEiuB21BzXNbiUQikUjep0gxKZFcK1JASiQSiUQyhRSTEsm1wiuzklFV8S1JiUQikUje10gxKZFcL0pCUBKRSGTqt0QikUgk7yfkF3AuC4kD1QvV58OB470IBMN0jIyiQqfToaS4BMVlpVCMRqHKL/xO9xWIRRF0DeLkyVMoWLwR6WlWWONetDScxFjAgoLyShTmpsOYsH5jiSHgc6OztQ19Iy5xxBgPiZG3oM4OVTFAH49QOGOwO9JQWFqOwvws/gr4+4/EY+7kyCTnhXA4DL1eL8w1EY/Snxhiip7+8lfWVfobEe6dOdZEIjWMmhWLYbHYxLfcZe9PIpFIJLca+m/+1Te/mfgtmUE07Edvy160HtuH3YcGMTrmwtj4IEZGh9HR0YGx0TGSltT8my2w2a3XLPri0SDc7cfx0+/9B1IW3IOUTDts0QFs/s0Psau+D9a8MhKsWbP8bepL9B1IKAa8Q2giIdvY0oXRkRG4htpx7NAeHGrswYg3CJ9nHOMjQ/CFYrBlZCMrOw16FlbXaXjzbiYWi0Fv0KOzsxMTrglYLVaYTNeYWvEARge70DMwDD+ltNVugFHxwed14fkfP4+GYydQuXYpTDaHFJMSiUQiuSW5RcVkQvCIQVMyQnUkpAftxuln4syNESRxFbGID0PdnXjlxdfQ1NmDO+99Co88ehduW78Wq1evRnFxIXrp/NH6UwiGdSgpzIPNlJCTdL3wnXK+75J+ZsSZGAm40V4cOnQYZWsfQXaWA3aSFCMD/Yhb81BWXYPC7BQSETGyzFeeLyX4LmzYrQvuFE9co2jXJO0y5/khiRKH2WJGxZy5WL1mvQjj8lXzKQ66EDbl4LEPPooPPHQf1tHxBQvnIisrha6PQyX3VXJQl3CMnJlxg+QOwQnHCEuKtmGU80PCv9j3jHYFWRThoTMiThVx/vzwxMmZxJHLxjv/Sp5PuCvur8VT0l3tLgzvTfNN0jHKmyoi0OnieP75F9Hc1Iy8gkKkpqclbRJ07Yx0mHKfjmshjaL+wD7s3X8ccUs6Sktyoafj0Vgcw/1jsKU4MGfZYthIqBrpOI9cavdPhCHhJXaJSRylg3yETCK+krDdhI/O5SYxOkp5nuyqZPf8KyQSiUQiuTy3qJjkhpCau3iE2rkQvN5JjE+44HF74feHxVnFbKD2VLkxj1ljfnj6TmP/W9uwa7QIn/rq/8D86lwYTXS3REub7rSgoigbAbcPDSfakeZwoqg4R5xTg5MYHewHXQDvpA8ulwtutxsTFA5fNAaj0QijjpryaATBkRli0qhDblEpqufORUFuNiyGKKLBMbhd4whHFBKuYYyMjsLj9WLE60MgpsJsMkCvJ/eSKoDiLewbw+jIEN0zKOyO+gIwWGzQ6UlOkR0dWTwnG9hw2MxkeGQtcSwyhJa6AxgIZ6Bsbi0Kspww0HFFDSHiGYFrYhwevR3DE2746LfRbIYxrkM8FMHY+ISWZl4yngkEgyHodSbtMXBCcUZ8YYwNj0JnipC9MUyQOx43pTXFk5eEocFsgZm9QnbjMTe8E0MYm/DD7fFgmMLuIjcVCrfRaKBIjyHq88A9PoYwaSOewzjK8UR2x8hukOLdZFBgEEOp5KIQWVHS85Q246Pkrk/YHaT08gTDomNgFH4NkFgm/0x6KR8GSaPF4R6lMFGaKgYPRscGcOTICdHvcWTnQO9IpfsYKH0VREI+uMd6MDE+Arc3RO5TmgVC0FkpXNRpiIe94t6tjWfRN+KDMTUP6ekp0BttFPYUlFZQPpg/FzlpGTBTflHIL3ElCO/4JCaG3JSnKLw+LyYDAUT0Rko6AyiIIuniIbJD6R+l/BEMhUUeZDNBeWGMwqczmWDlPENEAiOUDn1wRSgaTWYY6F43pFxJJBKJ5D3JLTpnUhsJikcC8AwPYdPWXdh3+Cg15jHk5FZg1brlWHf3SmSkOmERNmcXlYRN24E38dPfvoacB/4YH35qBTLp+NRIDqGoQbIYRlNTL97afEgMPD373Mdgtejg72zFP/7jP2HDkx9FS3snWpvPIuCbJEFjQO38ZXjiAw+iqjwXCPsxceYg/u+3/w0b/+g/MLc2FzmGSbzyy5+hd9yINXfcjaXzC9F8fD/eenMHUvNqYSEhsmfnDuEHv2rFvPkL8NTj96GsJA86FmkkqsL+STTUH8Vvf/M7uOmerC6ixjR8/rOfQ1VVLiwWEjt07IqCIdSO333/uzjuLcH9TzyCFXNKRHxH3KM4uuNNbD1Yj8Uf+AQOHzyI0bZT+IMvfQlzSsox0tWFX7zwClq7uknsUYcAQRQXVeKB+57AokXVMJhIcFK26zl+Bj/8wQ9xz9MP4vjpE2g524loOI4QTKhevBIf+9AHUZJpJbsx+Nz9eOW//guHG3sQiqoIkIh1Zubg0QfuxLpVS2CisPecOYk3XngZ1qJqZKSnY8vWN8W8xmDMhJo5c/How3djTnUpDAYt5DHqqPR1NmPTy6/geHM/iTUFPr0DGZmZ+NRHnkRtdTmMhhAmJ4exbds+NJ7uwbJFS9BwuI5E5DDWPrQUW7dtg2ecc4YBqjUNd97/MB7YuBq5qWa0n23A1lefpzzQBb8+hZKBhLwjD5/73CdRW5QC/2AvXnvxdzhx7Bgm4umYtBSjproIH/3wvcjJyMILv/y1mErxhS9+Hk5nKglZ6oz4XXjrpR04vKsOQeo0BPUqUp2Z2PjgU7h97TykWrTH7OGBLvz4+99DelkNwooRZ06fFuI/rOphzynBRz/yIayaX8pdA/Se3I/v/X/fga3mNjz0xKOoLSmY5akVEolEInkvc0s/5vZ3nMLzP/5P7D96DJ5gFCqJCjcJvbMk0M4OhbBg2QKk3oAhFNfoOE4cPI6hcT/WPPU4stJtsNFxbUwrgUIiTWdGCkkfpe8UWlsbYVmwEXbyUNpoN47u3YnfnRjE0rsewyc/9jSe/uCjmJOVBldDPUYmRpC+dDHpvhjiJJYPHTqKsnUPaiOT8XF0nziEsbAVmRXVyMsyYrK/CXWHT+FArwWl1Yvxl1/9DB555CHcVmrCsa2/hs9eDFt+IewmD8KDp/DKa7vw2yNePPbRz+IPP/M0HnrwXqzKU/Gzb/8lolkLYc/NEiOgV3xhSPXiNAmd4ZAd1XNrUED+F9eEAxjq7sCuA4dxqmcUH//47+Ezv/ch8n8mndfhVz/7OeYtXopnP/0MnnzyUdy+/jZMegLYsnk3cvMKkZubLuIyTOE6dnAHXmoYxKpHP4rPPPtxfOixh5GX6UR7Qx18E8NYsHABiblJ/Ncvfovmzn589atfxdMffhpPPLQWabExdLR1IEbpUJCfBs9YBw4eqceOTiCzbB7+6o+fw6OPPoLbq0xo3P88jnUHoc8pJX8aSCy5cPZsB378k72IKk789V//KR5//HE8cWcp2ve9gFcO9MFIois/xwJT0I2e1iHs2d+GUVcAT3zmE/jg730Q82vK8OADD6KvJ0Bivhaf/eRHcceaRUgxxzDQcRoHyC/+zEp85c++gSceeZDs3ofewwdwYvs2ZNUuRlp5DZavmYsMG+VtYyrWP/IUnvnIfSh2pkENhdBw6hQCAT9WrVwBi9mCwNAwXvjJz9ExHsTdH/0Ynv3Mh3H/7UuQQkL6N796A/FQHBULKqGSaDV4B3C6fj821XfAUb4cz/zex/DM049j+bx5CLS1oaPhOMpvXw5Vb0RwuAfH6upgyipGde0cZDlT5MikRCKRSK6a6YNttxz79u1Db2+veNFhOqFwGF3d/Th4qClx5MbAL1dkZmQk9i6OyWhCSkoKdDo93G7tLegkH3/2WaxZWYUUuybbioqKkJ9fAJ9vEqFgSBy7Wni07N67N+CRhxYnjgBZ5eVwZmTC7/cjROKDaSOhMDY6ijs2rMSSRdniGPstl0TEQ488ilMNDWK06+o4Tz6fg8QKv8FcRvf//O9/DqWl2WLeJBvuBjzz3HNYf+dtFC8swQFnqhM1NSRSsrPQ2Ngork3CL6x8msTZ8oXVMCfUbVZ2NgnOXEx6vQgHg2J0kR/RVldXw5GaOnX9yvXr8aGPPo1Fi+aJfSbVmYp77t6IDz62guxp/s+oqsA9JPpCoSBaOwbgDwIDlK/qDx2E0WTEsyRiLZbEGDf555mPP4usrCw0Nw9jZNinHSfm1NTgmWf+G8oovFcir6QEjzz1BD70wYcTRygd9Do8/fTTwv/9/UMkFMkj18Ce3bspTiaxft1yLFxQJY5ZKe/NXb4cGzasx4EDBzE6MXbeEkX33Xc/7r93LXKyrGI/LS0NlZWVYuqDPxgQxwrmzMHX/uff4TPPfQzFxXnimEQikUgkV8stKCZJjigj8Ic60DI4iuGQCRExj+98AoEACaf2xN6NQhNNl4X0Cj8eZVRWU9OwWnUwGhTWXgI9iTp2jx/xJkdfrxYdOWIi4WNKKi5CZ4iQQOF5fOQmmZgngInecejjKuZXZMFhSPidxZ/ZhprFyzFOomxkLIBwRDt1efTkSwMU8i/dYUpaxkmsqNEYDIoOVhJfRp57x3qfjdKDgPcYfvjdf8ef/NGf42t/8g38v3//d5w9cwYmgxFhSjd2R7gVN5PbFqRaYrAbeEkc7Ywproc9ZoAupmCS4k816rCizIT2wy/hP3/yG3SOTiCkc0C1ZMNodcJgOBcnnBYsEM3T40lvRXnVfOTYMzDZPQF3/wTCExMIeLwwlxTBWmCZSkPoC+EoWYulcwoQGaiDa6gNcQpeWGdCwJQBxZYJO6Wh+QrJp9Pr0d/Vix9/+7v4qz/+H/hTioe//qtvwTMZRJQcDFHchims52Tf5RgHIv1oGQ0hnrccuUVzkEbuW6hcKAYnMkj43rHGidT4WRxr9MET5ZeDNFismyk+ksLaoFNh1dPd436ElTg4G+hM6bCl5iPdaoeT0vSdWYpKIpFIJO8VbkExyURJsIQRjqnU8PL7t4mG/jyuTYxdDzwi6nK7E3sXJxqJwu/3kUBUxQjl+ZAfL+b1WSMpSjURFvQF4HG50XT2LH7645/ib7/1T/jWt/6WzLfwT7T9/g9/JEZ6xyd8CPFbKleBFvcXj2sRNBKa4u70h41ruBcv/O6/xEsxTzzxAXzyk5/E0qXLMDQ8hN6eHraevDKx5Vl7/JbyuXvwUR3t8pb0JIwWM1bcuR5PPPYgWts68H//7Yf462/9G/7lX3+Mo3WNiF4xKCzE+cUSPdRIDDFKs6DfD4/bI9YIPf+ZrpEEmhVWsxHByQkEPS5KZMqP/Na6QuKajObry9NC4nn7G5tIcOvx8d97Bp/61Kfw1JNP4Y033sD4+IToeHCILx6zM6E85p3ApI/EJAljg8EsCq72ApW2tqXdpqM4C6K3f0S8dHNpOL34nW0tgrX7s2vU0aEDmrsSiUQikVw9t6CY5BYuHWZTAfKddqQZwjDELxxGs5itKC8vT+zNLnabCYUFKYiGXTjbmBj9TLb8SaNGoMQC6CdhdmbcDHNWJaqzrNDkZLJJpq3WWr9t4govwxM7zwtQddCrJG7iPIJIgsmgg92oR05uPpbethF33n8X7r//fjIP4K4Hn8R9H/hv+IPPfASr5xfCbr6KpKd4N8bDYsHyKIupxGGWIlESSTw3j4+ySzyAy+ZEXR8GehXUzlmEZcuWoLZ2DpYsWYpFi5YgPT2NrkxGCF2rknCL88JHPPrMLvE5vgvfQTO8SLpeb4Azdx7mr38Cn332aTz9yN14dE0VUryt2LN9O46c6eCl5C8NOcnvJsXIf2ESjrzl0UyL2ZywMA3FT2aSrjHBqEuD3mAnkUwyK+ntq8HngqvtFPyeCVQsX4eyhXMoHmoxd95cbFi9ABn2uPay1NWiGKG3OmCm9DVTvtOJZX+mwUOnMQcU1QG7g+JUqkGJRHKrc0EVyAeuxkhuRagVuhWxwKBPwaqlS1CcmwljYjmXJGYSAaVlhVg0vyRxZHYx2a0oqC5FRUUxDh+sR/8Qz9s7PxPzOoEBEgvNTa3oHg9hzsLlyKaG/NwDeRbFiZ+zhVgPcRpxFmQ8PsXxo8Bgs8LisMNssSAzLx/LVi3DylUryazC0lW3CbNmxSKKU6cQJleGRA+Fkx9y86qIU8EhtcJL67CA1f6KQ8KMjgZomwqnM0OkE+NwpCCP/OMgvwnLDK9PRCKYhbAKNuxSsrJgo4lK7Tehs8OSlo/lSxZg7cpFWLtmEVYtrkA0GEBn3wjCM6JmJqPDI/D6fXCk25FCnRSbzQa73Q6XywPfeVMXw/BOjqGvdwBpzlykZ2STn3nM7hqIUH7xucUSO47sPKiJJ+48glhbXQa7RXdtYpLi30hiMt2ZCp/HBe+MublBfxDdzV1QYwZUVhVNva0ukUgktyTJ6u9S1WCyQbmo4fPSXNLcJG5RMalROm8Jbr//MSxathLZ2dmwpaQht7gS69atw+N3rERppvaCx6xjtCC1ZC5W3XkvcqId2P/C99De3I1IKDqVXkPDY9i77whONDYhqzgX85fOJQGsRWdUryKmY3WjreY4K5D4YuGVvL9wlf7EdCzBuESSqDPbkVtRCweJpDMHd6GnueU8+/v3H0BTcwcCgat8+YcLrthqmyTxuI7EtQFxErKmuAoDBZUfX7MpLU8jCTiCgcFueH388opCAnMCTU0tGBkdIV1GjrF3eUPusxTVU9j0dEyTbAnD5xLneY3Kgzt2o5f8HouKiZmALQOqPQd6ox5WXWRqnl+IxWXTGTSeaiX/8I0A11gY+w43iWsri9ORQWLSmVOM8ooKmEY7cGbndrEuJROLmrB711G09fUit7KQRPmlXrbhAFiFMcX9iHgGEAj70Tk4iiFfDIa0PIQjMYx1NMOYGDble+zaV48Jb4ziL9EFYC+SiQbdiPiGMenxo6l9BFpO44f/nKcstGfHkgUkFNUeNJ4+jP6BQbouhkjAg472Nrx2tB22qhWYU5iOFMqH11KwgwPN2PfKz7B7/3H0ufx0b4lEIrl+EtXalBFMHUj+SAwYiCctSVuiVkzYu4Q5j4QbZHim+IXm3L9Ln3lv/RNReBO4pcWkPjUTC9begXsfehQPPvgg7nvwfvr9AB64/y6sXVAJ6wUZa3aIK0YYU3JRvnAZPnhnFbIjHdi9ndd63I3Nb27B5s1vYfNb29DS2YfCygqs2rACmfnal0+YmJIUk8kxw7cPu6TEz71UIiAlopLhR+DiHnozCqvnY+XaNWLJot2bE35NmGN19fBN8vxOcfVVkyzDycviJP5iMT1UUh0mKpbTxeSc+YWYv6gQTa1nsOnNzXTfbSRij6C7uxcRfkRrODc7kn3NRkfuicXQxVEtxrQQJQQluR90TWLv1h3YQuF4i82WPTje3IdcEnvzyvMw9dSeFy/3e9HW1IO33kqE/809aOv2YN7casytJLsmI2zpeZi/eBHWVuWi++g+ssd+JfPmTpxpaEflvBpUL6qE3am9BX0h7D9+A9yCisJM+Ce6sWf/fuw+fAyD3hBy5yxCUXkFOk8ew65NW4Wfd2zbgRFXECHVROE7N9qZlZkJqzGOsycPYs+ufWhsGxIvxmhCkuIrrt1n3vwCrFpZCPdEH/l1K8XFm9j+xis4dPAQYrlzsOSBR5Fl1YllrK6lYIcGW3Dg9V9h/6GTGCAxK8WkRCK5XpJtRbKeF5y3Q3AvWhj+rR2a9uPyXOBwQkTNMOf+aUfOyU7NJI9LZodb/HOKJDAMBmRk5aCyqhpzamtQVlaItBT7uXcmrjL/XTPkrsFoQH5RAeZUzUNTxyiGR8YxNjGM8fFR8PIrS5YswYYNtyMnN1OMrLHUY+/wV3tck0GUzFuGzPRUWPXaiw1qNIpQOARLWhoKKypg1emgj4ThCYVRtnAFMlItsCgxBLx+mJ35KCgqRlaKRaw5GI2bkF1UheJ857lH6fEI3CSyMotqUVCQgxSLHhaTGbmFdF12Dnp6ejA8zP4dF2buvHlYuHgBbHab8M+Voi4ej4qRMlN6ESrLS8gvNhHv/DZ3MBiEju5VOacWNqtVc4v+WKwGFBaWYWQsiMGBEUy4XOKxe3l5GfLz85Cbm4Pi4iIx6BkLhuALh1EyvxZpzhSYFe3LK9FIBNFYFCkZ6SiqKCehZUZZUQnONp/FwOgIxsa08DjTnFhNwrmqporqpQg8o33oaOtGds1aVFQWoOVUPdkdQzgQEvMVV69bgZy8LJZn4u14mz0VuQXFCEeiaO7qFm6yf+fPn4c77lqP/NwsGKljoFPjYjkhk9WJqop8pNrOl2pOhwOT/gBGvUGkOtNQUVKA0pJisai6x+PDwGAfuT0Gn9+H+++9l0qdgpKaOcjJTIPVEEeq1Q5VbyOh6afIBcV1Bd07FUGfXyxWXlNdJb6axIu9FxaXIRY3o6+fv1ozDJ/HTYI3A3c/+CjmVWWLMUxBjPKVL4CM4mrkUbzzXFrOn5x2EcqDcXKvbMFC2AwmGII+8b31zIoFVL6KkGYznytfEolEcp0k25hk+zAlIqdGIxOGj50n8S5jhF02ZD/xKdjkHPvp5oLjVJeft09+OG//PWL4hc1znx++lmGFmSRT7+q4pb+Ao42vcIDOeTExBqflJ/EjsZ1FRFZNuMtvFb+XiFDEcZAMFMArZTPOliz6pqZqzoxrYYHiirKQWFqHzyeeQiftiuhL/J7JJQ5fE/y2N99Sp/rR03gYr7y8FeYFj+PJx1Ygi24u7sEW2CN6Llz8g0c8tdAnc//bKXISiUQi0eAqNdl+JtvpqbqeRU5MhaqGEI2FaJ8bEbLE9bFoQ5I2p664KJq7dG2cOuBT+9Ogy7VD7M7VuPXeQQstx6kRMKVrnzC+Lq6tVZRi8iKw01JMcjxMi2T6OVXOGRFJZLRTYitOT7tEnEvuEwnrU0z/fb2cE5MBEpNH8epLW2BZ8Aie/MAqZCbvLcWkRCKRvGMk289ke8C7/MW3WCxC9XEUkUgQYTIx+s3rGE/nSpKE3eIngVx583JozMz6W5wWfuA/mmdmuqodpS2dSP5+L8DtNL+zHFcMiFvTYDSZxJM4vdFAJ/jtgqsN7TW0ijzKK8XkhbDTUkwS1Hvk+I1RD4fFF8fF9GuS8cR9S4bP6Tjp6JiIv0QcJnPYeWKUmErDt8GUmKRKqb/pDLZu3o6U2tV46MG1sCfdl2JSIpFIbjhc78+o5gU8vcbrcSHg0dZtTkl3wsare7wt6E7JpTJm3nRqn34kGnN1hp2ptj25fa+gUINHbXc85ENschCjI6OwGoxIyc6miM+HYjBdNI0u5CpHNHl0OTopxeTFYKcT+e/9LSbj/Bpy/KrFJKOnpGPRKOLvCmkz22LSEA0hptMjYNRmDkoxKZFIJO8cyXYzWfVz9RqN8kcXXAiHQuKLaVaHQxslO6/luB7oLlJMXgivy80DQTx3UvVoxyiqI2PjmNQ54HBmiNHKK6K7ym+hqTGo4/1STF4MdjpZKN7XYvIKsDss5qbDjx9Eil1FusyqmBSGHOT7J24+NRIqxaREIpG8c4hqlv7EWdTEMTwwAKvNApsjHXqDmQ5RjZuoe2eFmWswT0GNQLIxSrYHSWbz/rcSHO88OilIBJI31NjFg2NwjwzCmpYOs1j32UqNH68WcjFmRtjFiUVCGG6pl22o5L0EZX5SkFwErq4YSCQSieSGwAKGKmJeXzfVmQpbipOEpInERwRq9MKv2klmk2QrqA2ziBecdHooZhNS8/LgnRjH5PAwL50yze5Mc2Ui4TBGh4aQnZ9HGvaWHJlMeunqAiS5emY7Zmdmnnc6xabf/5L3Pi/QvCPzlUQikdxQxJvaHnjHJ2Cz5wshCYOC5MckxAogbxtZl1+cmS1zAv6iHcV/xD8O1e+B3uKEzp4p0kIYtnOlKGWnRTMaQiTYj/GePuRWrbhVRyY5NDKT3AhmO2aT7s22u1fLVd37PAuXtSmRSCSS62WahtE0h4pwiJfvSYyQEfwVtNkRkpJLk2z0ZhoDpYkBRrMVBoMR0WhMjBwLfS/S7mLXXMLwRfEQFJ6fqTffqmJSIpFIJBLJu4ZpQlIgFEoUcfEyCI9Saha09x5my0iuC50Fii0T8RgJSe8AdCp/+vj64TcxpJiUSCQSiUTy9mG9mBCVYvAxHoOS/BqLkBySWwLFCMVkh16JQx/xAjFtvc5rg1KTpzIkRpmlmJRIJBKJRCJ5r0O6Lzk/kncMZjOg1yEcDGjnrwnhGP2VYlIikUgkEonkfYNYFU/TgdBZLVANJCYD1yMm2Q0ddOwW/ZNi8jx4KJ4/HB+bPsXjovBpbfCefsWjiMdjYj+5utOtBQ9HR4RR6Tf7UT5ukEgkEsmNRxu5ktyC8HJBBoN4Keq64Hmxicfct+jSQLPB9QQrTDESQsAbxtigDzGVBKLp4no7quhhcaQgM8UMQ8SDMdckggYncnOyYJtxyaUW545Go5iYmEAsFkNubm5i6PlyXG9S0XXqhFgPyq2mIi0zB6kWE6/ScN1cKkwSiUQieR/CbQKbxMiXWIZGHcV4by/ScuaJxcrj3Ojwo1HZftw8RNrQf5FeXoQ8/YiEFDiyqzUNciVdkExnBBAJdsDdP4Ssqg3vZTHJXGvQIlDjQTSdbMSLP3sJHr8PPgO5QmJvwhOC2WKB1WyAjlR83JiCZatux313rkBgqAm/e/41BBzl+NIffgaZMxaUv1TBGR0dw/PPPw+Xy4WvfOW/w8zzFy7L1YUnFo0hFAxSWFRYUxxa2SYx+b1//VecHjbjIx9/BkvmlsF8lZ/evBiyMpBIJBLJFNwmsGExwo1OUkz2kZjMlmLyliEpFjkN1HNi0n5dYrITrv5BZJOYvPiw23sGjpVrMSbolFTMXbwaf/ZPf4//9R//gm//y9fw91/7BCzp87Dhwc/hr7/1v/Bv3/5X/Ps//w0+9eH7UJRtJ3EJGAz0x6SDShsuKNPNO81IXz82//J5/OJ7P8C4GoSfg0YYDAYYjUYhhiUSiUQimV0SDR7PA2OjUxHjTx2ySKGGkj91K4XkLQSlhS5G2uAi8/P4K5SXMlOQllDFJEzde11MvjOU19Tgi3/yFXzpi8/AehXfT79Z/N7nP4+/+MsvY15tCQxvY1RSIpFIJBLJuxx+MC2+VPT2ubUfc8cmAM84tuw5hn11DfBNRpGbXYqlq5djyfplsBgB+w31fRTx6AD8/f348j/twfo77sXDd9YgK33ac2zVg6HOeuzdcxJDtiX46NMbkAZe8Z+uDuvxkx//FGebWxGJaNJ/zpwa3H3vvSiprsD46Bhe+e3v4Jpw4yt/9IfaY+7YEKITQ/jVpjOob5vAxjWL///2zjy4quvO899779s36WmXwBKbkMRmZAQYHGMHMHiNEyeeNnR3OtVb4kymk65JUp1MOvF0/5Gpqeoqd/UfM1VTU92d6ow92ZxOHC8MtrGxAbMYYywssQgkkEC73r7cbX7nvPfEgwiDQRIP/PvAT+++c+4799xz7nvne39nuXh44xo4HTaM2BB6Ozvx33/9okzLnyUh29SEh7/0JBoaG+HMJnBw10689NIODEeSyECDc04r7rl7Df5o83zsfuEFHIzWY/Mj96O1XsOZg2/jvaP9cFQthsel4LUdv5bpOlUNCxYuwLY//XN4vF64kKK7DrrgTAfe33cIO197HWdHx+lG00TdnACe2vZlPPu/XsPGjZuw8U4PrME+/M+XTiDlrsNjG9uxsqVOpns5fIfKMAxzmyB+z4WcEF5I+d6ErYxguP8cKquXQnNSuymiij1bzOwjyp+qSTxW0ZgYAFIj0ILVUPz1l3RzX+KBLEZUsdCfSgp6phcj/YOon78B2jM/euaZ3B6lR2LgFF5+4RfYtfcQzg2NIRpNYWw0jt7+flyITKC1teX3JrtML1RiVhx6LIZX9/Shcd5CLJ5fCZ/XkY8n7DQiI73oPtaDUbsWHXctgodk3OjIEP7ln/8Nw0Mj2Ezi8QGy1R0dyGR1dJ88icr6WmiKiuPHupBOp7Fu3VrZDW2M9eKVf/8F+saA9nXrsWZVK0J+D8Yv9OOtX/8chw+/h03bt+Pe9Rtwz5o1JEhHsP9IN9z+ctRUlqEiHERlbR0MqnAxQeiJP/pDtDXfgQp3Fl0HDuDEhBvNbQtRG1Iw1NOFg4e70NU3KicOfeHxB9GxahXmNNRj95tvwlcxFzU1lSTaLVhmFm++shNv73wDDXfcgce++EWsXdeB2vowfkaCuOt0As0trVg8xwErMoSd751FxPSiddEczK0J5QvrUvg3hWEY5jajICal6kgiGYvC56+BqlG7KaL4h//mUlT+2egoLCsDZ3kVhXsuHTP5MfUkHUGKQbogQvWbQDDcVKLd3EqCLI7DB95D5wfdJCAn5Mxnm0RaxhjFheF+vHf0LA5/2J//wEyi0HEVkpW5V/H+EpNfHFWOG7BpWywVZBvjeHfHL3Eu4sDqLY9g5epVWLhwHhY1z8f69Wtw/4b1qAkG4KI7N83WoUEn0TqK7Ohx/OTFI9hzrgxLVq7Cho7FqC0ncZbqx9m+Hrw94Mbcz2xHR+udWDq/mdJsxsYHtiLkduD8yS5MjEUQqiTxNmcBanxhVHj9WNBUQyIzBEWl8lPoOOILXoTLH8a8pcvRcU8HpbcQzZTHFUsb0BQ0cLo/gphu0gWTwoXuI3i/6wyUphVYtflhtCxuxqIF87F8STO2bL4XlaoLAd2G6qiCv7Edf7L9cXz1S/egtbFSXnhTGcMwDMMwswS1u7ZFf6wozMQ5WKoCJTQX0AL5Ha6fEhSTQmXoSGdiOHWqB9FoIjeFXSIG8uowLQPjE0l89NHpfPhMcrmInIJ8sNxPZDabwKnO99HQ1IqmxW10V+bPxVJ0VVUF5jc1IuDxUOEXZKpJpxzDzt/9Cl29o1h292ewsn0pwgGxj45EdAjnzp1F1luFxava4XW4SYDm8lNX34DmBfMQGR3GyNAwBTkoVCORqkKj4lIVM1/JNolJyttlp+BwexCuqUV1XbV8L/LocQFlHgVpEof0ny4+A+d6jiOe1lFPArausUFO4hFJeWnn1paF8KoOOEX10N2NI1CFFhKlSxbWIxy8bGo7wzAMc3tTaLOpQRELW8uGhSkJhESxbR2ZxBjEKEfVHaT3Nz6JojQ9k4Rh6kglk9IjORWWZSF5nau2zyRyHEI0imgkirKyMjl7+koIIem0I6SPx/HSS29i175OuIIhNLfNQ3k4mNuJKj4RjWFo4BzGRvqw45Xf4rnnnrvEjhzpRu+ZYYyPx+WalfJrm/8yixe5eYPf5UQ8QUko8PnccBT18jMMwzDMlAixUtwYFb8ys0dBCFgpKNkokqMkJC0HnF4fVJVqSCjMy7hqD2I+TVW8kr4oWTHpdLjgDwTkOMKpcLlcqK+bemLHrYLwSGpmFJGRMzh46COU1y1APKtjcDyFVFaMcCXyFarawsOYoc/Y4vt5idXW1mHFijtRV1QeBe0op/IXbTMMwzDM7GBT+5Xr25MUGiPm5mClYcRJSGYNuL1BuDx+6Tm++gNTrgDVZ8GnWYJiUpyUC25XEC1LWhCuLoei5U7UomybcMPh8mBufRgrls2X4bMBSbj81scjKsURCiFUFkJsIgJLF+MUZQwlQgLRNuRi4jq9N8RoScWPjOXB2nXr8dAjj6ICCfTs34NzfeeRNGkfqmiPP4TKqirUhf14/KFNeHL7Nmnbtj+J7du/hKf+8Av43BNb5ZhMTRNVK768uS9wwURV28p1urLpKvGG6KKjHwU9loGdzYfLMjGgWCayqgM6mXCfix3E2FExfz0viRmGYZjbHdnYULtQGFJlaVBlFyq9KTRGch9mtpBeRxKRwtLxGAzThDdcBaeftJXilJpFDlq7gqCc0juZ31VoAunRIkrTM2n7yPxYvvoutK9rxx1NcxEIBOD0BOAtb8DCxa3YsL4Ni5pufNDoNTNVgU6FqBCnE21tbeg/fQY93WeRTGREBFWmifGhAZw504PxtI40VaTuqEblnGXY+shjaF/VgSfWt8DV+y4Ov7sPJ4eitI8DnlAFKurqgfgwOg/sxWgyjYyoTCWNrB7BiTOncWE8Al1Wai6jtngUpJ6Fns1gaHgQtinEpCsvMT8hdJXMWTgfPrcXA8cHcL53RA4zEEs/ZJMR9HzUiZitIqVR+jblifLZdeIEjp3qxUQskU+EYRiGuW2ZbFqoDZILlVNrYzmhmc6c0ijYdTRBzHVCVWGLtjobgZUcRYbEpNPnhSbGSWpkqisnJqXR/leom0sEZWE/EWhb9CJcRmI4QwnjrajGlke/gMce/zzWrl2DlXeuwH33rsMTjz+MzfetmaXMqzAVMd3FIPv92dCiVG04ZFGqch8KUTy4f/OjqCz3YNeO3Th04IicTHTy5Gns23MQ77y1F7FIQuZfplZ0R7Bs/XrcSed6ovsE9ry9D2MjMbj8ZVi4dBlaW5sp7C0c3P8eTp88SWmewdEPOvHSy2/g+Il+6GK2DOF0OUh4axifGMOxD7vx+q5dMDNZiI5yRXzB5VHp6HReuS0xCUiQv0pEuJzIIz4h9nCicUEb2pa2YGTwLHbvouMdP0HHP42uzm688dob0FNJqOKiJSYuDOJn/+ff8fzzL+H06QEZxjAMw3wauNie5Vq4XLvEzDLSa2iQ6dBjcejJJIJVNXC4fVRFOfWU80reCBfrtqTXmRTrHsEZQv3cJrS3t2Pd2g6sXNaM+upyiAfNXHlqy/QhZkBH0waOHjuOhQsaML+xGl538ZFtxGMJnL8wBs0fwkoSXC4lCDVQh/Xt9Rg8+Q727HsX7+w7hHcOHYPuqca9929CS1MNjEwGvb39pOY0tK9qh+YgAafoqKqtxuhIHD2dp+DWXGhasEh2m7c116MhHMAvf/4rvL9/Pw68+x6JyY/Q8ZkNWN7ehpCP7gIpR14fpaMlcKTzKA59MEDXkoa7774TPf0XkKK7xLaWhagK+jA2NIqRaBrh2josapoDpxxUSRLSMND9ER27eg6aFzYi6CqDqoawaGE9Kn0xHDt6AK+9tQ8HDh3EIAnWJ576Co7sPYU7W1swrylA55VEV98wnCSCW5qbUEP1Ja/Yy0y8MAzDMLcJhd/3wq+7lYQRi1AzXk36hVon/tGfHYTGs0hI6uMwM3FERoYRqK4GXGHYmp/qQcsJyUJ9XUu9FO2T28zCovQzJFR9VfOFhzLf4c1MgXDV555mk4Wf6kchwXWZO9fOkCVhKk6k1aAsZF+hSK2I+ANbDVA6Loh56cK3KQTflZ66qFiiW9ikmwovvZJoFQlKF6ZOcbHcG7WMXi+SpitCjE900XGlzM3nyVLEOMYQJWHT8XLdzQn4KEcqPGaCzkVHRvUgSyamOXlltiklUxwHiDvK5Dn7KFyltA09RhdMFpqT7mw0MjqjrD6B4yd68E//sANf++pXsXSZG246uYzmlWUi8nOlyd+XuM4ZhmGYW5ziH3VqP0lsJPr74Z3bBtVBDUNBkPBv/4whxkjKcZJGhiTIeUyMj6OqqUnGWQ7h2MnNnZgUk9dI8QRe2XbbCRiJHkQGBlG5eOOluoi5HCoem4QgmYtK0k0FqMpvQ5EJ76kahqYE5aMdhfCajBOij+IUknKi8J35eJGOeD+VQRF3DSRKVaf0RIvKlnFCllFaOSGZTz9vHooXx6ZP5MLyeVIpHXEskffCefhpOyhEpyoEYQhuxS3fe8XFJ7/hdFAKFxagtyJOI0E9MdGH5557Hi/+bheSqdyjIYVMjEzY+M2vd6FqQTUalwXh8AVhO4JwkZAUcphXEWIYhmGY2UGxMlD1MZiZccTTBiqbFsFyVkgreCTlOtFCLkwj7Jn81HEd1a2kYFk6zpzqx86db+LDzmNyTKXA4/VgxYoV2Py5xxAK+uEVdzsy5upI8cwwDMPcJhT/qLNn8qZgppCODCIZjaG8do58jKXlyK1bPTlG8jqE5NU8kywmmWsgN1tL1w1MTEQRj8fpfe7KEgueBkNBlIfDuffyL8MwDPPpg8XkjXEDBWOnqbwTcqKNYWTh8AaheSooggq9eIzkdcJikmEYhmGYWYDF5I1xI2IyidTEIMxMBt6ycipvL2zt4vwKVSjJGRST7EhiGIZhGIa56QjFVqz4pGojI2Fum5eZWPYnt/SPrSeRHBuDkTHh8lVAdYn5FWLWAqUmPZI3JiSvBRaTDMMwDMMwJUlBUOZNdCbLDmUx/IzM0OVi5JZlw+0PkZgMkrITk3Ddk2Mkb6R7+1phMckwDMMwDHPTKRKN0gpISZgz6WUkE95JPY10ZAyWnoHHH5APOIE2ua6LtNyfmYfFJMMwDMMwzE2n4HGcQlAWRGTBSEiKBeGNbBpOtxMOl/BGirWp84vDF2yWYDHJMAzDMAxT8pC4zI+VzEaj0A0DvooqOAPCI5lbjPxmwWKSYRiGYRim1BFjJbMJ6PFxJOIxuIJBqG4/CUkPkF/7+WbBYpJhGIZhGKZkER5Ji/6b0JNxRIYuoKy6FprTnY+/+bCYZBiGYRiGKVXEZBsjASMbw1g6jqpF86AGKgCnePzyze3eLsBikmEYhmEYplQxTeiRCUT6z6GqqooCZnFmzTVSok/AIRUuEVpXFFohi8rFrYtB046dHEff+7vwk+dfwEkskGEBa6zo6HRDEKzG/Vu24p7WOvTs/g32dPai7YvfRseddRAPMBIok0V7hUyKuw1LPJoQiDtClLoCH31kyvsMkZSY5EVJGZftoFEysjwUUW4WbEWFRXcrKgUqMCiMIo1RpMbG8Oz/PoD21Rtw9+omlIc0maxY2V7kMFem9MfWxQZM1SnzpFHQDBQzwzAMc1shG5E81GDxE3Cuk0IBmbCMDNLxJNLpLMrKy6B5RNe2bLHlHhcpDrs87sb5/SfgJGEkexAdGETFrfcEnNm5AhX6Elh6mioxi42bH8C3v/OX+M53v43vfvc7k/aNb/w5Vncsg6YYyKRiiNFdQ1qnz+XTuFb0TAqHd+/GP/7TP+PCSBTWVU7x6tLflv9yW8WYpF11xGIJuigNMfziYxCfLKTCMAzDMMysQw1+KpFEMplEqDwMze2hwIKTrbQobTFp6WQZKtC88slpHCmodCpLY4bK06ZiscTMKIcbgaq5qGtsQGNj4yU2b24DqkN+BMLVWL7xcWz76texcnElXPRpxYxJy7kSLyL8hhmZb+FKTIt3sA0b2Ykozp8fhq6bEKFJsY/4gMCiLYNCrWw+YLIYJu1SRKHkfKg5E9siTJUeS1ultNQkpZfKpyuWGaC8kaVoNypthmEYhmFuFja1zdkxpCaGYGSzJCTLSI4Iz65oy0uT0u7mJjGpJxI4fPQYPuo+gVTKQll5PRa3LcLiFQvgdjjhmoHcW4kxnDywEz/91ctYuu3vcd/6uaim4xQrb+HyFYe2klH0HnsfnT1n0Xb/Y6irCSCgT2Dn716EK1gPfyCEEydPYXRsnESkC+XVDVi1shXLFtdibGgQO//vLzDQ24f9cT8WtTRj+bIlWNOxDHPCZXBS+me6j+Hw3rcxOhGDrnrhC/jx0BOPI0wXl3zeJqGRZhVu51MnuvH++4dwflgcywmP24lFC+Zg86aNVKQjiFw4j//2P3Zg7fpNKFMnMNTXhXEq06zqQ82cOVi74V7UVvnhIZE5PDCAF17djcameVi35i6Ey0LyWAzDMAwzNcUNMjVM3M19fZgxZKLDMAwFzkAFXJ5rWfpHFG6hgAuv08ct3c2dHT2P/TtfxM6Xfovdu3djz953sOvN1/HiKzvw6u73EctrzulGePIs4cm7huKxDAOj5y+gu/MYYgm6mxDfEiuBvs5D+M0bB/H2sQvwllWhubkZjVUBJHo/kOLwXESB6fFj7sIaVNX4oLnL0dDYiDtqqxByOSmJCXywdxd279mLqEr7tbRh/oL58NNF9cKvfonOzk6Yui5zKCr26JEP6Hivomt8ANUkIFuaF6K2uhKnTp3Au+/ug033DHTnIPN86NAh9I/EEGqYj/nNjajypXCu+wO8faALSeGopH1jkQj27z+EEyd6kE6J82IYhmEYZsZR3TAUHykRDS7o1CjPkNiZRkpaTJ784BAOvPX/0NtzAplMBpZlIBYfxbHuLux8+zC6zwzn95x+LKpG+3pcylKxp+Eg051lqJ43H+vu/Qy2bt2Chx+4Fy0NPgyfO40zw0m4QmGsvm8NWtqa4AtU4e7163DXshZU+H240HsKHx7aA5POedXGTdjw0MPYQmnce98GGCQid7/1FlKplBR+/efOYd877yCaTWH5PXdj04Nb8dDWTXhg82ex6q674HLRHQ0pzoIn00lidV7bEqzZ9AA2br0fWzeswNxKH947ehIjERMq7VdRXY1HH92Kjo6VCAT88nMMwzAMw8wwihNObzk0h3AsRWClE/mI0qVExWQSujmBw8e6cH4sDsO+NJumaWJ4eAxHSfzMBGKUoYPuBMx0Esc7P8Cu1/fgtddeJ3tt0nbvOYC+80MfO+FGjK1cvmweykM++d4T8CIQ9lPqJqKJVP6zuVGNliqM3iokEBFD18nTiGecaGtbikV31EE4uFVNQ2VNDbZu2Yozp09jbGKCyslET08PxsbH0b5kBdYtuQtBsRo+EQgESAyuRnv7KhKSMnE6nBMrlnegZeF8hLwu0GHlfuXl5YhEk2Qko1UVFXSczz3+CNauvYvFJMMwDMPMIi6XCy6vH4bigJ5MAZkYtd8X506UGiUoJkndKBFks4MYiiURNV0wpxgrYIju5dHR/LvpRYg7p1geJ5vE0NlT6P7wOD788EMSrxft2PGTGByPXpwo87FIdyWZ2DsDWzFpS5MjQ8XyQcIMUnUG1YatxJHJXsDA8DiGY05cuBDD0XffxZH9+3Hw4AEcfu+Q9ETGY3H0nTtL5ZRFJBKlC8+D+mAVqjUf3DadgTgckZOqwiOZf7XcZB4Syxqd4xWWIWIYhmEY5uahKFA8PijBCtiqCjs2DKQj+cjSowTFpMAFVfXC63TApVqTY/2KcTgc0ps2M+SUmN/vx+YtD+I//dVX8K1v/hW+9a1vTtqffmUbli9Z9MkLUOg6Sl54BHOdzkJAKvK9MFElmawBQzcxODiM/SQiX331Vex45RVpr5Lt3LkTNTXVyKYzUCwL6XQK6UwalknylFSkSEZYbpkhuUUHU2XX/eRBGYZhGIYpaZwuF9yBILXnGox4CnY2Rc36tbmxZpMSFJOkduxKeN2NaJ1bh1qvBedl/j+VVHp5eRmWLW3Jh0wvQm8JP574myZRKxzLUpcVIWZai87kq82vypFLUdxpiEk9JB3htBX5WblcD4U4TJWMdrFdJGKr4PWHsai5Ddu2/zF+8Lc/xH/54Q/x/R/9AD945m/xd3/3DNl/xZb7Poug14+yshAcLgcMyyTBSGKSDmWKYhTjJKGTUfkpFJ9fhJxhGIZhmFsDxeUFwnOQ1nwwR/uA7Dg18B83yG72KVHPZI577t2Axa1LECBVrmmaHMsnBqRWVlaifXkrlrVW5/ecXsSkFouE2UxQkHJCnOYEqggho+OJ7m6x1qSQmVV0jol4FGf7emVXdgGRt3Q6LU1sC8LhMBKJBHp7+zA+HpHhIlVLei3TyKQ/yeqRlCZdpLahI0Z3Qcl0ltK5XEozDMMwDDNbaA4H/KEQyQUVdjQGmIZsq0uFkhaTzoZF+PyffQuP/4ftWLx4MSpr70BbxwZ8+ct/gm988bOomKlylIt7i7Ga0zWiMC8dhfgTQk0RazvaMETxK27oZI7h0/CNpfHmntPoGrBwd8cCLJk7jj2v/xQ7Xnk5nwYQj8fx03/9iTQhIAUda1ZjVccqHDhwEL/97UuIRxPS6zk2PIJ/+9ef4mfP/5y0KoXYLgq9imfSNmGn+xE9ugtf+8//gH/8l9cxMBzNRzIMwzAMczNQHC5oVQswbgWgD52BnRmhNjv3+OObTUmLSYHD58P6DRvwzb/+a/zomb/BX/7Fk1ixbH4+duYoLKMz0zjdbty1fj28Xh+effZZvEzCcXx8Au5wOR586ik88Nhj2Ld3L77+9NN4+mtP4/vf+z6ikQj+YNs2OaYzh4ItD27F5594Ar19ffib730PT3/9P+LHP/4xTNPCk5SOGBrwSZESOKdhGYZhGIa5ySgODeXVVbKnFrGYmI2cj7m5lPYTcIQXTeQuL+zEpphEIt7lJqsQM6H5zCyy8TFEkmm4y+vh8znk7OdixLhEmQXTRCYeRyKdRiBcCZdLo0LVMTEyAtMRRCDog1t00csPGUglokikdLiDFfB6KF2I52TbGByckEseyQulvBxeN31GsZBKZhCNxqHTBSOOKUSu1+VGRWVlviQuEk+nEKG8GHpWdpkLAen3uBGuCNOxLZiGjpGRFJ1PAD4/3eHQKYlliiw632SCjpO2UVEegldLURFkcHbChNvjQ2XQCxfli2EYhmGuTLGcsPgJONdNoYCEFhImCu4yDZJNIxGNwWUl4Qz4oHjLaTd3PvZSbTAdCP1RYKon4JS4mBTeNHEGF7NYmEAiT0Zu5F+nE/G8avEsbM1BWchX4BXEpMiHzIvIRz5TF/M4vZksVObkuRde84hJN8JEqRX8kGJ6j6QwtiK3mGUuS2QiVopU8VbuSn/ya1kZaq5bXKMgEc8wDMMwVybf3khYTF4/hQK6spgUuxiGDjVyntpuHUqwBvCU5SOnv8W+mpgsaA6mGDFWUiWFf9VnYZYeF1eVzFlO9QqjqpaLv8tQhmEYhmFuVagpdzidUEPVyGhB6MkEkB4jDf9JJtxOHywmp0J0q0uP5K1VPAUhSapR/r0UEcNCkmEYhmFuG1xeaIHcmttmfOKmPXqxRNWSyFaxF60ghHKjBCcl0eTGDDLp0bsM0muT3c0F8l5AEZ6LuyS3N8zFdPNclrQoHbGKpfx3pX0LWcq/l5tiv+J95VxwB1Q6l+LF1RmGYRiGmWkKjbTQHqI9Lji3pjanywPVG4Sp+WEZFpCJkLJMUhxtyyFueStsi1e5LbrQxQQesX0diKF8ee0gclKCFAryY5g1hTN1XgqhMub3o2eP4oyQFTanpGi/Yi4Noi3RzU9WuFQZhmEYhpltRAsshKSwQkt9mckJymQuP+CrkP2TVnwYVmqCwknpyTWzheLLb08KyYIVxmV+UnIqUj5zT0z4le+Y24KCJ/ISjyTDMAzDMLcfQkcW2n0SlfLhLg4nTEtDNpGBnYpR/MWHnswkLCZvM1hIMgzDMMyngKL2XiwFqDk0OHwhoKxOrsZiTgwA2Uh+j5mFxSTDMAzDMMytjvBUEk6nE/4giUrVCTORgq1nSHjO7OLmLCYZhmEYhmFuRYp7I4u2FZcHSmUTYpYXxuApIDtOodczNvLaYDHJMAzDMAxzK5L3Rk6F6PYur6iQ23YyCVjXOWv7GmAxyTAMwzAMczuianA2tCCie5EZ7oOdHiZlOf2TclhMMgzDMAzD3K6QoAxWVkJVFZgT47Az0/+UHBaTDMMwDMMwtzFi2SBHuAFpRxmMZBRIj2I6H73IYpJhGIZhGOY2R3F44C6rgHj0shkdh5UWT8mZHlhMMgzDMAzDfAoQywZp/jCymh/ZrAXLmJ4lg1hMMgzDMAzDfEpQ3H4onjJkSEdmUul86I0A/H8FbNenx69IKwAAAABJRU5ErkJggg==;" parent="1" vertex="1">
          <mxGeometry width="850.33" height="280" as="geometry" />
        </mxCell>
        <mxCell id="VWOfVqWn0M74AD5xAuFb-22" value="" style="edgeStyle=orthogonalEdgeStyle;rounded=0;orthogonalLoop=1;jettySize=auto;html=1;" parent="1" source="VWOfVqWn0M74AD5xAuFb-1" target="VWOfVqWn0M74AD5xAuFb-21" edge="1">
          <mxGeometry relative="1" as="geometry" />
        </mxCell>
        <mxCell id="VWOfVqWn0M74AD5xAuFb-1" value="MULAI" style="ellipse;whiteSpace=wrap;html=1;" parent="1" vertex="1">
          <mxGeometry x="140" y="330" width="120" height="80" as="geometry" />
        </mxCell>
        <mxCell id="VWOfVqWn0M74AD5xAuFb-2" value="Flowchart Checkout Keranjang Belanja di Online Shop" style="text;html=1;strokeColor=none;fillColor=none;align=center;verticalAlign=middle;whiteSpace=wrap;rounded=0;fontStyle=1" parent="1" vertex="1">
          <mxGeometry x="40" y="300" width="340" height="30" as="geometry" />
        </mxCell>
        <mxCell id="VWOfVqWn0M74AD5xAuFb-25" value="" style="edgeStyle=orthogonalEdgeStyle;rounded=0;orthogonalLoop=1;jettySize=auto;html=1;" parent="1" source="VWOfVqWn0M74AD5xAuFb-5" target="VWOfVqWn0M74AD5xAuFb-24" edge="1">
          <mxGeometry relative="1" as="geometry" />
        </mxCell>
        <mxCell id="VWOfVqWn0M74AD5xAuFb-5" value="Buka Menu berbentuk Keranjang&amp;nbsp;" style="rounded=0;whiteSpace=wrap;html=1;" parent="1" vertex="1">
          <mxGeometry x="120" y="540" width="160" height="60" as="geometry" />
        </mxCell>
        <mxCell id="VWOfVqWn0M74AD5xAuFb-16" value="" style="edgeStyle=orthogonalEdgeStyle;rounded=0;orthogonalLoop=1;jettySize=auto;html=1;" parent="1" source="VWOfVqWn0M74AD5xAuFb-6" target="VWOfVqWn0M74AD5xAuFb-15" edge="1">
          <mxGeometry relative="1" as="geometry" />
        </mxCell>
        <mxCell id="VWOfVqWn0M74AD5xAuFb-6" value="Klik Checkbox semua" style="rounded=0;whiteSpace=wrap;html=1;" parent="1" vertex="1">
          <mxGeometry x="120" y="950" width="160" height="60" as="geometry" />
        </mxCell>
        <mxCell id="VWOfVqWn0M74AD5xAuFb-12" value="TRUE" style="edgeStyle=orthogonalEdgeStyle;rounded=0;orthogonalLoop=1;jettySize=auto;html=1;" parent="1" source="VWOfVqWn0M74AD5xAuFb-7" target="VWOfVqWn0M74AD5xAuFb-6" edge="1">
          <mxGeometry relative="1" as="geometry" />
        </mxCell>
        <mxCell id="VWOfVqWn0M74AD5xAuFb-14" value="FALSE" style="edgeStyle=orthogonalEdgeStyle;rounded=0;orthogonalLoop=1;jettySize=auto;html=1;" parent="1" source="VWOfVqWn0M74AD5xAuFb-7" target="VWOfVqWn0M74AD5xAuFb-8" edge="1">
          <mxGeometry relative="1" as="geometry" />
        </mxCell>
        <mxCell id="VWOfVqWn0M74AD5xAuFb-7" value="Jika ingin mencheckout semua barang?" style="rhombus;whiteSpace=wrap;html=1;" parent="1" vertex="1">
          <mxGeometry x="140" y="770" width="120" height="120" as="geometry" />
        </mxCell>
        <mxCell id="VWOfVqWn0M74AD5xAuFb-17" value="" style="edgeStyle=orthogonalEdgeStyle;rounded=0;orthogonalLoop=1;jettySize=auto;html=1;" parent="1" source="VWOfVqWn0M74AD5xAuFb-8" target="VWOfVqWn0M74AD5xAuFb-15" edge="1">
          <mxGeometry relative="1" as="geometry" />
        </mxCell>
        <mxCell id="VWOfVqWn0M74AD5xAuFb-8" value="Klik checkbox barang yang ingin di checkout" style="rounded=0;whiteSpace=wrap;html=1;" parent="1" vertex="1">
          <mxGeometry x="330" y="800" width="160" height="60" as="geometry" />
        </mxCell>
        <mxCell id="VWOfVqWn0M74AD5xAuFb-27" value="TRUE" style="edgeStyle=orthogonalEdgeStyle;rounded=0;orthogonalLoop=1;jettySize=auto;html=1;entryX=0.5;entryY=0;entryDx=0;entryDy=0;" parent="1" source="VWOfVqWn0M74AD5xAuFb-15" target="VWOfVqWn0M74AD5xAuFb-19" edge="1">
          <mxGeometry relative="1" as="geometry">
            <mxPoint x="410" y="1070" as="targetPoint" />
          </mxGeometry>
        </mxCell>
        <mxCell id="VWOfVqWn0M74AD5xAuFb-35" value="FALSE" style="edgeStyle=orthogonalEdgeStyle;rounded=0;orthogonalLoop=1;jettySize=auto;html=1;" parent="1" source="VWOfVqWn0M74AD5xAuFb-15" target="VWOfVqWn0M74AD5xAuFb-34" edge="1">
          <mxGeometry relative="1" as="geometry" />
        </mxCell>
        <mxCell id="VWOfVqWn0M74AD5xAuFb-15" value="Jika ingin menambahkan&lt;br&gt;voucher?" style="rhombus;whiteSpace=wrap;html=1;" parent="1" vertex="1">
          <mxGeometry x="360" y="935" width="100" height="90" as="geometry" />
        </mxCell>
        <mxCell id="VWOfVqWn0M74AD5xAuFb-19" value="Pilih voucher shopee" style="shape=process;whiteSpace=wrap;html=1;backgroundOutline=1;" parent="1" vertex="1">
          <mxGeometry x="350" y="1100" width="120" height="60" as="geometry" />
        </mxCell>
        <mxCell id="VWOfVqWn0M74AD5xAuFb-33" style="edgeStyle=orthogonalEdgeStyle;rounded=0;orthogonalLoop=1;jettySize=auto;html=1;entryX=0;entryY=0.5;entryDx=0;entryDy=0;exitX=0;exitY=0.5;exitDx=0;exitDy=0;" parent="1" source="VWOfVqWn0M74AD5xAuFb-19" target="VWOfVqWn0M74AD5xAuFb-24" edge="1">
          <mxGeometry relative="1" as="geometry">
            <mxPoint x="350" y="1240" as="sourcePoint" />
            <Array as="points">
              <mxPoint x="40" y="1130" />
              <mxPoint x="40" y="680" />
            </Array>
          </mxGeometry>
        </mxCell>
        <mxCell id="VWOfVqWn0M74AD5xAuFb-23" value="" style="edgeStyle=orthogonalEdgeStyle;rounded=0;orthogonalLoop=1;jettySize=auto;html=1;" parent="1" source="VWOfVqWn0M74AD5xAuFb-21" target="VWOfVqWn0M74AD5xAuFb-5" edge="1">
          <mxGeometry relative="1" as="geometry" />
        </mxCell>
        <mxCell id="VWOfVqWn0M74AD5xAuFb-21" value="Tampilan&lt;br&gt;Awal Shopee" style="shape=parallelogram;perimeter=parallelogramPerimeter;whiteSpace=wrap;html=1;fixedSize=1;" parent="1" vertex="1">
          <mxGeometry x="120" y="440" width="160" height="60" as="geometry" />
        </mxCell>
        <mxCell id="VWOfVqWn0M74AD5xAuFb-26" value="" style="edgeStyle=orthogonalEdgeStyle;rounded=0;orthogonalLoop=1;jettySize=auto;html=1;" parent="1" source="VWOfVqWn0M74AD5xAuFb-24" target="VWOfVqWn0M74AD5xAuFb-7" edge="1">
          <mxGeometry relative="1" as="geometry" />
        </mxCell>
        <mxCell id="VWOfVqWn0M74AD5xAuFb-24" value="Tampilan&lt;br&gt;&amp;nbsp;Keranjang Shopee" style="shape=parallelogram;perimeter=parallelogramPerimeter;whiteSpace=wrap;html=1;fixedSize=1;" parent="1" vertex="1">
          <mxGeometry x="115" y="650" width="170" height="60" as="geometry" />
        </mxCell>
        <mxCell id="VWOfVqWn0M74AD5xAuFb-41" value="" style="edgeStyle=orthogonalEdgeStyle;rounded=0;orthogonalLoop=1;jettySize=auto;html=1;" parent="1" source="VWOfVqWn0M74AD5xAuFb-34" target="VWOfVqWn0M74AD5xAuFb-40" edge="1">
          <mxGeometry relative="1" as="geometry" />
        </mxCell>
        <mxCell id="VWOfVqWn0M74AD5xAuFb-34" value="Klik Checkout" style="rounded=0;whiteSpace=wrap;html=1;" parent="1" vertex="1">
          <mxGeometry x="515" y="950" width="120" height="60" as="geometry" />
        </mxCell>
        <mxCell id="hppBkEB0sqJrKdjq9IVF-116" value="" style="edgeStyle=orthogonalEdgeStyle;rounded=0;orthogonalLoop=1;jettySize=auto;html=1;" edge="1" parent="1" source="VWOfVqWn0M74AD5xAuFb-39" target="hppBkEB0sqJrKdjq9IVF-114">
          <mxGeometry relative="1" as="geometry" />
        </mxCell>
        <mxCell id="VWOfVqWn0M74AD5xAuFb-39" value="Pilih metode pembayaran" style="shape=process;whiteSpace=wrap;html=1;backgroundOutline=1;" parent="1" vertex="1">
          <mxGeometry x="680" y="1170" width="120" height="60" as="geometry" />
        </mxCell>
        <mxCell id="hppBkEB0sqJrKdjq9IVF-111" value="" style="edgeStyle=orthogonalEdgeStyle;rounded=0;orthogonalLoop=1;jettySize=auto;html=1;" edge="1" parent="1" source="VWOfVqWn0M74AD5xAuFb-40" target="VWOfVqWn0M74AD5xAuFb-43">
          <mxGeometry relative="1" as="geometry" />
        </mxCell>
        <mxCell id="VWOfVqWn0M74AD5xAuFb-40" value="Tampilan Checkout" style="shape=parallelogram;perimeter=parallelogramPerimeter;whiteSpace=wrap;html=1;fixedSize=1;" parent="1" vertex="1">
          <mxGeometry x="670" y="950" width="140" height="60" as="geometry" />
        </mxCell>
        <mxCell id="hppBkEB0sqJrKdjq9IVF-112" value="" style="edgeStyle=orthogonalEdgeStyle;rounded=0;orthogonalLoop=1;jettySize=auto;html=1;" edge="1" parent="1" source="VWOfVqWn0M74AD5xAuFb-43" target="VWOfVqWn0M74AD5xAuFb-39">
          <mxGeometry relative="1" as="geometry" />
        </mxCell>
        <mxCell id="VWOfVqWn0M74AD5xAuFb-43" value="Sesuaikan detail pemesanan" style="shape=process;whiteSpace=wrap;html=1;backgroundOutline=1;" parent="1" vertex="1">
          <mxGeometry x="680" y="1070" width="120" height="60" as="geometry" />
        </mxCell>
        <mxCell id="VWOfVqWn0M74AD5xAuFb-51" value="" style="edgeStyle=orthogonalEdgeStyle;rounded=0;orthogonalLoop=1;jettySize=auto;html=1;" parent="1" source="VWOfVqWn0M74AD5xAuFb-47" target="VWOfVqWn0M74AD5xAuFb-49" edge="1">
          <mxGeometry relative="1" as="geometry" />
        </mxCell>
        <mxCell id="VWOfVqWn0M74AD5xAuFb-47" value="Ikuti Panduan Pembayaran dan Lakukan Pembayaran" style="rounded=0;whiteSpace=wrap;html=1;" parent="1" vertex="1">
          <mxGeometry x="670" y="1660" width="140" height="60" as="geometry" />
        </mxCell>
        <mxCell id="VWOfVqWn0M74AD5xAuFb-53" value="" style="edgeStyle=orthogonalEdgeStyle;rounded=0;orthogonalLoop=1;jettySize=auto;html=1;" parent="1" source="VWOfVqWn0M74AD5xAuFb-49" target="VWOfVqWn0M74AD5xAuFb-52" edge="1">
          <mxGeometry relative="1" as="geometry" />
        </mxCell>
        <mxCell id="VWOfVqWn0M74AD5xAuFb-49" value="Pembayaran Success" style="shape=parallelogram;perimeter=parallelogramPerimeter;whiteSpace=wrap;html=1;fixedSize=1;" parent="1" vertex="1">
          <mxGeometry x="660" y="1760" width="160" height="60" as="geometry" />
        </mxCell>
        <mxCell id="hppBkEB0sqJrKdjq9IVF-83" value="" style="edgeStyle=orthogonalEdgeStyle;rounded=0;orthogonalLoop=1;jettySize=auto;html=1;" edge="1" parent="1" source="VWOfVqWn0M74AD5xAuFb-52" target="VWOfVqWn0M74AD5xAuFb-54">
          <mxGeometry relative="1" as="geometry" />
        </mxCell>
        <mxCell id="VWOfVqWn0M74AD5xAuFb-52" value="Checkout&lt;br&gt;&amp;nbsp;berhasil dilakukan" style="shape=parallelogram;perimeter=parallelogramPerimeter;whiteSpace=wrap;html=1;fixedSize=1;" parent="1" vertex="1">
          <mxGeometry x="660" y="1860" width="160" height="60" as="geometry" />
        </mxCell>
        <mxCell id="VWOfVqWn0M74AD5xAuFb-54" value="SELESAI" style="ellipse;whiteSpace=wrap;html=1;" parent="1" vertex="1">
          <mxGeometry x="680" y="1960" width="120" height="80" as="geometry" />
        </mxCell>
        <mxCell id="hppBkEB0sqJrKdjq9IVF-1" value="Flowchart Pilih Voucher Shopee" style="text;html=1;strokeColor=none;fillColor=none;align=center;verticalAlign=middle;whiteSpace=wrap;rounded=0;fontStyle=1" vertex="1" parent="1">
          <mxGeometry x="70" y="1220" width="190" height="30" as="geometry" />
        </mxCell>
        <mxCell id="hppBkEB0sqJrKdjq9IVF-7" value="" style="edgeStyle=orthogonalEdgeStyle;rounded=0;orthogonalLoop=1;jettySize=auto;html=1;" edge="1" parent="1" source="hppBkEB0sqJrKdjq9IVF-2" target="hppBkEB0sqJrKdjq9IVF-3">
          <mxGeometry relative="1" as="geometry" />
        </mxCell>
        <mxCell id="hppBkEB0sqJrKdjq9IVF-2" value="MULAI" style="ellipse;whiteSpace=wrap;html=1;" vertex="1" parent="1">
          <mxGeometry x="105" y="1260" width="120" height="80" as="geometry" />
        </mxCell>
        <mxCell id="hppBkEB0sqJrKdjq9IVF-8" value="" style="edgeStyle=orthogonalEdgeStyle;rounded=0;orthogonalLoop=1;jettySize=auto;html=1;" edge="1" parent="1" source="hppBkEB0sqJrKdjq9IVF-3" target="hppBkEB0sqJrKdjq9IVF-4">
          <mxGeometry relative="1" as="geometry" />
        </mxCell>
        <mxCell id="hppBkEB0sqJrKdjq9IVF-3" value="Tampilan&amp;nbsp;&lt;br&gt;Pilih Voucher" style="shape=parallelogram;perimeter=parallelogramPerimeter;whiteSpace=wrap;html=1;fixedSize=1;" vertex="1" parent="1">
          <mxGeometry x="105" y="1370" width="120" height="60" as="geometry" />
        </mxCell>
        <mxCell id="hppBkEB0sqJrKdjq9IVF-29" value="" style="edgeStyle=orthogonalEdgeStyle;rounded=0;orthogonalLoop=1;jettySize=auto;html=1;" edge="1" parent="1" source="hppBkEB0sqJrKdjq9IVF-4" target="hppBkEB0sqJrKdjq9IVF-28">
          <mxGeometry relative="1" as="geometry" />
        </mxCell>
        <mxCell id="hppBkEB0sqJrKdjq9IVF-4" value="Klik voucher barang yang ingin digunakan" style="rounded=0;whiteSpace=wrap;html=1;" vertex="1" parent="1">
          <mxGeometry x="105" y="1460" width="120" height="60" as="geometry" />
        </mxCell>
        <mxCell id="hppBkEB0sqJrKdjq9IVF-17" value="" style="edgeStyle=orthogonalEdgeStyle;rounded=0;orthogonalLoop=1;jettySize=auto;html=1;" edge="1" parent="1" source="hppBkEB0sqJrKdjq9IVF-5" target="hppBkEB0sqJrKdjq9IVF-12">
          <mxGeometry relative="1" as="geometry" />
        </mxCell>
        <mxCell id="hppBkEB0sqJrKdjq9IVF-5" value="Klik OK" style="rounded=0;whiteSpace=wrap;html=1;" vertex="1" parent="1">
          <mxGeometry x="105" y="1650" width="120" height="60" as="geometry" />
        </mxCell>
        <mxCell id="hppBkEB0sqJrKdjq9IVF-12" value="SELESAI" style="ellipse;whiteSpace=wrap;html=1;" vertex="1" parent="1">
          <mxGeometry x="105" y="1740" width="120" height="80" as="geometry" />
        </mxCell>
        <mxCell id="hppBkEB0sqJrKdjq9IVF-18" value="Flowchart Pilih Metode Pembayaran" style="text;html=1;strokeColor=none;fillColor=none;align=center;verticalAlign=middle;whiteSpace=wrap;rounded=0;fontStyle=1" vertex="1" parent="1">
          <mxGeometry x="1580" y="300" width="220" height="30" as="geometry" />
        </mxCell>
        <mxCell id="hppBkEB0sqJrKdjq9IVF-19" value="" style="edgeStyle=orthogonalEdgeStyle;rounded=0;orthogonalLoop=1;jettySize=auto;html=1;" edge="1" parent="1" source="hppBkEB0sqJrKdjq9IVF-20" target="hppBkEB0sqJrKdjq9IVF-22">
          <mxGeometry relative="1" as="geometry" />
        </mxCell>
        <mxCell id="hppBkEB0sqJrKdjq9IVF-20" value="MULAI" style="ellipse;whiteSpace=wrap;html=1;" vertex="1" parent="1">
          <mxGeometry x="1630" y="340" width="120" height="80" as="geometry" />
        </mxCell>
        <mxCell id="hppBkEB0sqJrKdjq9IVF-48" value="" style="edgeStyle=orthogonalEdgeStyle;rounded=0;orthogonalLoop=1;jettySize=auto;html=1;" edge="1" parent="1" source="hppBkEB0sqJrKdjq9IVF-22" target="hppBkEB0sqJrKdjq9IVF-47">
          <mxGeometry relative="1" as="geometry" />
        </mxCell>
        <mxCell id="hppBkEB0sqJrKdjq9IVF-22" value="Tampilan&amp;nbsp;&lt;br&gt;Pilih metode pembayaran" style="shape=parallelogram;perimeter=parallelogramPerimeter;whiteSpace=wrap;html=1;fixedSize=1;" vertex="1" parent="1">
          <mxGeometry x="1630" y="450" width="120" height="60" as="geometry" />
        </mxCell>
        <mxCell id="hppBkEB0sqJrKdjq9IVF-30" value="" style="edgeStyle=orthogonalEdgeStyle;rounded=0;orthogonalLoop=1;jettySize=auto;html=1;" edge="1" parent="1" source="hppBkEB0sqJrKdjq9IVF-28" target="hppBkEB0sqJrKdjq9IVF-5">
          <mxGeometry relative="1" as="geometry" />
        </mxCell>
        <mxCell id="hppBkEB0sqJrKdjq9IVF-28" value="Klik voucher ongkir yang ingin digunakan" style="rounded=0;whiteSpace=wrap;html=1;" vertex="1" parent="1">
          <mxGeometry x="105" y="1560" width="120" height="60" as="geometry" />
        </mxCell>
        <mxCell id="hppBkEB0sqJrKdjq9IVF-35" value="TRUE" style="edgeStyle=orthogonalEdgeStyle;rounded=0;orthogonalLoop=1;jettySize=auto;html=1;" edge="1" parent="1" source="hppBkEB0sqJrKdjq9IVF-32" target="hppBkEB0sqJrKdjq9IVF-34">
          <mxGeometry relative="1" as="geometry" />
        </mxCell>
        <mxCell id="hppBkEB0sqJrKdjq9IVF-51" value="FALSE" style="edgeStyle=orthogonalEdgeStyle;rounded=0;orthogonalLoop=1;jettySize=auto;html=1;entryX=1;entryY=0.5;entryDx=0;entryDy=0;" edge="1" parent="1" source="hppBkEB0sqJrKdjq9IVF-32" target="hppBkEB0sqJrKdjq9IVF-36">
          <mxGeometry relative="1" as="geometry">
            <Array as="points">
              <mxPoint x="1850" y="735" />
              <mxPoint x="1850" y="1050" />
            </Array>
          </mxGeometry>
        </mxCell>
        <mxCell id="hppBkEB0sqJrKdjq9IVF-32" value="Apakah metode &lt;br&gt;pembayaran &lt;br&gt;yang ingin digunakan sudah tersinkronisasi?" style="rhombus;whiteSpace=wrap;html=1;" vertex="1" parent="1">
          <mxGeometry x="1595" y="660" width="190" height="150" as="geometry" />
        </mxCell>
        <mxCell id="hppBkEB0sqJrKdjq9IVF-38" value="TRUE" style="edgeStyle=orthogonalEdgeStyle;rounded=0;orthogonalLoop=1;jettySize=auto;html=1;" edge="1" parent="1" source="hppBkEB0sqJrKdjq9IVF-34" target="hppBkEB0sqJrKdjq9IVF-36">
          <mxGeometry relative="1" as="geometry" />
        </mxCell>
        <mxCell id="hppBkEB0sqJrKdjq9IVF-52" value="FALSE" style="edgeStyle=orthogonalEdgeStyle;rounded=0;orthogonalLoop=1;jettySize=auto;html=1;entryX=0;entryY=0.5;entryDx=0;entryDy=0;" edge="1" parent="1" source="hppBkEB0sqJrKdjq9IVF-34" target="hppBkEB0sqJrKdjq9IVF-47">
          <mxGeometry relative="1" as="geometry">
            <Array as="points">
              <mxPoint x="1560" y="915" />
              <mxPoint x="1560" y="590" />
            </Array>
          </mxGeometry>
        </mxCell>
        <mxCell id="hppBkEB0sqJrKdjq9IVF-34" value="Apakah saldo cukup?" style="rhombus;whiteSpace=wrap;html=1;" vertex="1" parent="1">
          <mxGeometry x="1620" y="860" width="140" height="110" as="geometry" />
        </mxCell>
        <mxCell id="hppBkEB0sqJrKdjq9IVF-43" value="" style="edgeStyle=orthogonalEdgeStyle;rounded=0;orthogonalLoop=1;jettySize=auto;html=1;" edge="1" parent="1" source="hppBkEB0sqJrKdjq9IVF-36" target="hppBkEB0sqJrKdjq9IVF-41">
          <mxGeometry relative="1" as="geometry" />
        </mxCell>
        <mxCell id="hppBkEB0sqJrKdjq9IVF-36" value="Konfirmasi pilihan Metode pembayaran" style="rounded=0;whiteSpace=wrap;html=1;" vertex="1" parent="1">
          <mxGeometry x="1625" y="1020" width="130" height="60" as="geometry" />
        </mxCell>
        <mxCell id="hppBkEB0sqJrKdjq9IVF-40" value="" style="edgeStyle=orthogonalEdgeStyle;rounded=0;orthogonalLoop=1;jettySize=auto;html=1;" edge="1" parent="1" source="hppBkEB0sqJrKdjq9IVF-41" target="hppBkEB0sqJrKdjq9IVF-42">
          <mxGeometry relative="1" as="geometry" />
        </mxCell>
        <mxCell id="hppBkEB0sqJrKdjq9IVF-41" value="Klik Konfirmasi" style="rounded=0;whiteSpace=wrap;html=1;" vertex="1" parent="1">
          <mxGeometry x="1627.5" y="1120" width="125" height="60" as="geometry" />
        </mxCell>
        <mxCell id="hppBkEB0sqJrKdjq9IVF-42" value="SELESAI" style="ellipse;whiteSpace=wrap;html=1;" vertex="1" parent="1">
          <mxGeometry x="1630" y="1210" width="120" height="80" as="geometry" />
        </mxCell>
        <mxCell id="hppBkEB0sqJrKdjq9IVF-80" value="" style="edgeStyle=orthogonalEdgeStyle;rounded=0;orthogonalLoop=1;jettySize=auto;html=1;" edge="1" parent="1" source="hppBkEB0sqJrKdjq9IVF-44" target="hppBkEB0sqJrKdjq9IVF-45">
          <mxGeometry relative="1" as="geometry" />
        </mxCell>
        <mxCell id="hppBkEB0sqJrKdjq9IVF-44" value="Klik Buat pesanan" style="rounded=0;whiteSpace=wrap;html=1;" vertex="1" parent="1">
          <mxGeometry x="680" y="1460" width="120" height="60" as="geometry" />
        </mxCell>
        <mxCell id="hppBkEB0sqJrKdjq9IVF-118" value="" style="edgeStyle=orthogonalEdgeStyle;rounded=0;orthogonalLoop=1;jettySize=auto;html=1;" edge="1" parent="1" target="VWOfVqWn0M74AD5xAuFb-47">
          <mxGeometry relative="1" as="geometry">
            <mxPoint x="740" y="1600" as="sourcePoint" />
          </mxGeometry>
        </mxCell>
        <mxCell id="hppBkEB0sqJrKdjq9IVF-45" value="Tampilan Pembayaran" style="shape=parallelogram;perimeter=parallelogramPerimeter;whiteSpace=wrap;html=1;fixedSize=1;" vertex="1" parent="1">
          <mxGeometry x="680" y="1560" width="120" height="60" as="geometry" />
        </mxCell>
        <mxCell id="hppBkEB0sqJrKdjq9IVF-49" value="" style="edgeStyle=orthogonalEdgeStyle;rounded=0;orthogonalLoop=1;jettySize=auto;html=1;" edge="1" parent="1" source="hppBkEB0sqJrKdjq9IVF-47" target="hppBkEB0sqJrKdjq9IVF-32">
          <mxGeometry relative="1" as="geometry" />
        </mxCell>
        <mxCell id="hppBkEB0sqJrKdjq9IVF-47" value="Pilih Metode pembayaran yang ingin digunakan" style="rounded=0;whiteSpace=wrap;html=1;" vertex="1" parent="1">
          <mxGeometry x="1625" y="560" width="130" height="60" as="geometry" />
        </mxCell>
        <mxCell id="hppBkEB0sqJrKdjq9IVF-53" value="FLowchart Sesuaikan detail Pemesanan" style="text;html=1;strokeColor=none;fillColor=none;align=center;verticalAlign=middle;whiteSpace=wrap;rounded=0;fontStyle=1" vertex="1" parent="1">
          <mxGeometry x="1080" y="310" width="240" height="30" as="geometry" />
        </mxCell>
        <mxCell id="hppBkEB0sqJrKdjq9IVF-58" value="" style="edgeStyle=orthogonalEdgeStyle;rounded=0;orthogonalLoop=1;jettySize=auto;html=1;" edge="1" parent="1" source="hppBkEB0sqJrKdjq9IVF-54" target="hppBkEB0sqJrKdjq9IVF-56">
          <mxGeometry relative="1" as="geometry" />
        </mxCell>
        <mxCell id="hppBkEB0sqJrKdjq9IVF-54" value="MULAI" style="ellipse;whiteSpace=wrap;html=1;" vertex="1" parent="1">
          <mxGeometry x="1140" y="350" width="120" height="80" as="geometry" />
        </mxCell>
        <mxCell id="hppBkEB0sqJrKdjq9IVF-72" value="" style="edgeStyle=orthogonalEdgeStyle;rounded=0;orthogonalLoop=1;jettySize=auto;html=1;" edge="1" parent="1" source="hppBkEB0sqJrKdjq9IVF-56" target="hppBkEB0sqJrKdjq9IVF-71">
          <mxGeometry relative="1" as="geometry" />
        </mxCell>
        <mxCell id="hppBkEB0sqJrKdjq9IVF-56" value="Klik alamat pengiriman" style="rounded=0;whiteSpace=wrap;html=1;" vertex="1" parent="1">
          <mxGeometry x="1140" y="463" width="120" height="60" as="geometry" />
        </mxCell>
        <mxCell id="hppBkEB0sqJrKdjq9IVF-61" value="TRUE" style="edgeStyle=orthogonalEdgeStyle;rounded=0;orthogonalLoop=1;jettySize=auto;html=1;" edge="1" parent="1" source="hppBkEB0sqJrKdjq9IVF-57" target="hppBkEB0sqJrKdjq9IVF-60">
          <mxGeometry relative="1" as="geometry" />
        </mxCell>
        <mxCell id="hppBkEB0sqJrKdjq9IVF-67" value="FALSE" style="edgeStyle=orthogonalEdgeStyle;rounded=0;orthogonalLoop=1;jettySize=auto;html=1;entryX=0;entryY=0.5;entryDx=0;entryDy=0;" edge="1" parent="1" source="hppBkEB0sqJrKdjq9IVF-57" target="hppBkEB0sqJrKdjq9IVF-62">
          <mxGeometry relative="1" as="geometry" />
        </mxCell>
        <mxCell id="hppBkEB0sqJrKdjq9IVF-57" value="Apakah alamat &lt;br&gt;yang ingin digunakan sudah terdaftar?" style="rhombus;whiteSpace=wrap;html=1;" vertex="1" parent="1">
          <mxGeometry x="1135" y="653" width="130" height="150" as="geometry" />
        </mxCell>
        <mxCell id="hppBkEB0sqJrKdjq9IVF-77" value="" style="edgeStyle=orthogonalEdgeStyle;rounded=0;orthogonalLoop=1;jettySize=auto;html=1;" edge="1" parent="1" source="hppBkEB0sqJrKdjq9IVF-60" target="hppBkEB0sqJrKdjq9IVF-78">
          <mxGeometry relative="1" as="geometry">
            <mxPoint x="1200" y="1003" as="targetPoint" />
          </mxGeometry>
        </mxCell>
        <mxCell id="hppBkEB0sqJrKdjq9IVF-60" value="Pilih alamat pengiriman" style="rounded=0;whiteSpace=wrap;html=1;" vertex="1" parent="1">
          <mxGeometry x="1140" y="873" width="120" height="60" as="geometry" />
        </mxCell>
        <mxCell id="hppBkEB0sqJrKdjq9IVF-68" value="" style="edgeStyle=orthogonalEdgeStyle;rounded=0;orthogonalLoop=1;jettySize=auto;html=1;" edge="1" parent="1" source="hppBkEB0sqJrKdjq9IVF-62" target="hppBkEB0sqJrKdjq9IVF-63">
          <mxGeometry relative="1" as="geometry" />
        </mxCell>
        <mxCell id="hppBkEB0sqJrKdjq9IVF-62" value="Tambahkan alamat baru" style="rounded=0;whiteSpace=wrap;html=1;" vertex="1" parent="1">
          <mxGeometry x="1350" y="698" width="120" height="60" as="geometry" />
        </mxCell>
        <mxCell id="hppBkEB0sqJrKdjq9IVF-69" value="" style="edgeStyle=orthogonalEdgeStyle;rounded=0;orthogonalLoop=1;jettySize=auto;html=1;" edge="1" parent="1" source="hppBkEB0sqJrKdjq9IVF-63" target="hppBkEB0sqJrKdjq9IVF-65">
          <mxGeometry relative="1" as="geometry" />
        </mxCell>
        <mxCell id="hppBkEB0sqJrKdjq9IVF-63" value="Tampilan &lt;br&gt;Alamat Baru" style="shape=parallelogram;perimeter=parallelogramPerimeter;whiteSpace=wrap;html=1;fixedSize=1;" vertex="1" parent="1">
          <mxGeometry x="1350" y="813" width="120" height="60" as="geometry" />
        </mxCell>
        <mxCell id="hppBkEB0sqJrKdjq9IVF-70" value="" style="edgeStyle=orthogonalEdgeStyle;rounded=0;orthogonalLoop=1;jettySize=auto;html=1;" edge="1" parent="1" source="hppBkEB0sqJrKdjq9IVF-65" target="hppBkEB0sqJrKdjq9IVF-66">
          <mxGeometry relative="1" as="geometry" />
        </mxCell>
        <mxCell id="hppBkEB0sqJrKdjq9IVF-65" value="Input alamat baru" style="shape=parallelogram;perimeter=parallelogramPerimeter;whiteSpace=wrap;html=1;fixedSize=1;" vertex="1" parent="1">
          <mxGeometry x="1350" y="913" width="120" height="60" as="geometry" />
        </mxCell>
        <mxCell id="hppBkEB0sqJrKdjq9IVF-76" value="" style="edgeStyle=orthogonalEdgeStyle;rounded=0;orthogonalLoop=1;jettySize=auto;html=1;" edge="1" parent="1" source="hppBkEB0sqJrKdjq9IVF-66" target="hppBkEB0sqJrKdjq9IVF-78">
          <mxGeometry relative="1" as="geometry">
            <mxPoint x="1260" y="1043" as="targetPoint" />
            <Array as="points" />
          </mxGeometry>
        </mxCell>
        <mxCell id="hppBkEB0sqJrKdjq9IVF-66" value="Tekan kirim" style="rounded=0;whiteSpace=wrap;html=1;" vertex="1" parent="1">
          <mxGeometry x="1350" y="1013" width="120" height="60" as="geometry" />
        </mxCell>
        <mxCell id="hppBkEB0sqJrKdjq9IVF-73" value="" style="edgeStyle=orthogonalEdgeStyle;rounded=0;orthogonalLoop=1;jettySize=auto;html=1;" edge="1" parent="1" source="hppBkEB0sqJrKdjq9IVF-71" target="hppBkEB0sqJrKdjq9IVF-57">
          <mxGeometry relative="1" as="geometry" />
        </mxCell>
        <mxCell id="hppBkEB0sqJrKdjq9IVF-71" value="Tampilan &lt;br&gt;Alamat pengiriman" style="shape=parallelogram;perimeter=parallelogramPerimeter;whiteSpace=wrap;html=1;fixedSize=1;" vertex="1" parent="1">
          <mxGeometry x="1130" y="563" width="140" height="60" as="geometry" />
        </mxCell>
        <mxCell id="hppBkEB0sqJrKdjq9IVF-85" value="" style="edgeStyle=orthogonalEdgeStyle;rounded=0;orthogonalLoop=1;jettySize=auto;html=1;" edge="1" parent="1" source="hppBkEB0sqJrKdjq9IVF-78" target="hppBkEB0sqJrKdjq9IVF-84">
          <mxGeometry relative="1" as="geometry" />
        </mxCell>
        <mxCell id="hppBkEB0sqJrKdjq9IVF-78" value="Pilih Opsi Pengiriman" style="rounded=0;whiteSpace=wrap;html=1;" vertex="1" parent="1">
          <mxGeometry x="1140" y="1013" width="120" height="60" as="geometry" />
        </mxCell>
        <mxCell id="hppBkEB0sqJrKdjq9IVF-87" value="TRUE" style="edgeStyle=orthogonalEdgeStyle;rounded=0;orthogonalLoop=1;jettySize=auto;html=1;" edge="1" parent="1" source="hppBkEB0sqJrKdjq9IVF-84" target="hppBkEB0sqJrKdjq9IVF-86">
          <mxGeometry relative="1" as="geometry" />
        </mxCell>
        <mxCell id="hppBkEB0sqJrKdjq9IVF-107" value="" style="edgeStyle=orthogonalEdgeStyle;rounded=0;orthogonalLoop=1;jettySize=auto;html=1;" edge="1" parent="1" source="hppBkEB0sqJrKdjq9IVF-84" target="hppBkEB0sqJrKdjq9IVF-89">
          <mxGeometry relative="1" as="geometry" />
        </mxCell>
        <mxCell id="hppBkEB0sqJrKdjq9IVF-108" value="FALSE" style="edgeLabel;html=1;align=center;verticalAlign=middle;resizable=0;points=[];" vertex="1" connectable="0" parent="hppBkEB0sqJrKdjq9IVF-107">
          <mxGeometry x="-0.6118" relative="1" as="geometry">
            <mxPoint as="offset" />
          </mxGeometry>
        </mxCell>
        <mxCell id="hppBkEB0sqJrKdjq9IVF-84" value="Apakah ingin&lt;br&gt;&amp;nbsp;memberikan pesan?" style="rhombus;whiteSpace=wrap;html=1;" vertex="1" parent="1">
          <mxGeometry x="1120" y="1100" width="160" height="120" as="geometry" />
        </mxCell>
        <mxCell id="hppBkEB0sqJrKdjq9IVF-96" style="edgeStyle=orthogonalEdgeStyle;rounded=0;orthogonalLoop=1;jettySize=auto;html=1;entryX=0.5;entryY=0;entryDx=0;entryDy=0;" edge="1" parent="1" source="hppBkEB0sqJrKdjq9IVF-86" target="hppBkEB0sqJrKdjq9IVF-89">
          <mxGeometry relative="1" as="geometry">
            <Array as="points">
              <mxPoint x="1410" y="1260" />
              <mxPoint x="1200" y="1260" />
            </Array>
          </mxGeometry>
        </mxCell>
        <mxCell id="hppBkEB0sqJrKdjq9IVF-86" value="Masukkan Pesan" style="rounded=0;whiteSpace=wrap;html=1;" vertex="1" parent="1">
          <mxGeometry x="1350" y="1130" width="120" height="60" as="geometry" />
        </mxCell>
        <mxCell id="hppBkEB0sqJrKdjq9IVF-91" value="TRUE" style="edgeStyle=orthogonalEdgeStyle;rounded=0;orthogonalLoop=1;jettySize=auto;html=1;" edge="1" parent="1" source="hppBkEB0sqJrKdjq9IVF-89" target="hppBkEB0sqJrKdjq9IVF-90">
          <mxGeometry relative="1" as="geometry" />
        </mxCell>
        <mxCell id="hppBkEB0sqJrKdjq9IVF-98" value="FALSE" style="edgeStyle=orthogonalEdgeStyle;rounded=0;orthogonalLoop=1;jettySize=auto;html=1;entryX=0.5;entryY=0;entryDx=0;entryDy=0;" edge="1" parent="1" source="hppBkEB0sqJrKdjq9IVF-89" target="hppBkEB0sqJrKdjq9IVF-103">
          <mxGeometry x="-0.5385" relative="1" as="geometry">
            <mxPoint x="1200" y="1490.0000000000005" as="targetPoint" />
            <mxPoint as="offset" />
          </mxGeometry>
        </mxCell>
        <mxCell id="hppBkEB0sqJrKdjq9IVF-89" value="Apakah ingin menggunakan koin shopee?" style="rhombus;whiteSpace=wrap;html=1;" vertex="1" parent="1">
          <mxGeometry x="1137.5" y="1280" width="125" height="110" as="geometry" />
        </mxCell>
        <mxCell id="hppBkEB0sqJrKdjq9IVF-97" style="edgeStyle=orthogonalEdgeStyle;rounded=0;orthogonalLoop=1;jettySize=auto;html=1;entryX=0.5;entryY=0;entryDx=0;entryDy=0;" edge="1" parent="1" source="hppBkEB0sqJrKdjq9IVF-90" target="hppBkEB0sqJrKdjq9IVF-103">
          <mxGeometry relative="1" as="geometry">
            <mxPoint x="1200" y="1490" as="targetPoint" />
            <Array as="points">
              <mxPoint x="1410" y="1470" />
              <mxPoint x="1200" y="1470" />
            </Array>
          </mxGeometry>
        </mxCell>
        <mxCell id="hppBkEB0sqJrKdjq9IVF-90" value="Toggle Tukarkan koin shopee" style="rounded=0;whiteSpace=wrap;html=1;" vertex="1" parent="1">
          <mxGeometry x="1350" y="1305" width="120" height="60" as="geometry" />
        </mxCell>
        <mxCell id="hppBkEB0sqJrKdjq9IVF-103" value="SELESAI" style="ellipse;whiteSpace=wrap;html=1;" vertex="1" parent="1">
          <mxGeometry x="1140" y="1520" width="120" height="80" as="geometry" />
        </mxCell>
        <mxCell id="hppBkEB0sqJrKdjq9IVF-115" value="FALSE" style="edgeStyle=orthogonalEdgeStyle;rounded=0;orthogonalLoop=1;jettySize=auto;html=1;entryX=1;entryY=0.5;entryDx=0;entryDy=0;" edge="1" parent="1" source="hppBkEB0sqJrKdjq9IVF-114" target="VWOfVqWn0M74AD5xAuFb-43">
          <mxGeometry relative="1" as="geometry">
            <Array as="points">
              <mxPoint x="920" y="1335" />
              <mxPoint x="920" y="1100" />
            </Array>
          </mxGeometry>
        </mxCell>
        <mxCell id="hppBkEB0sqJrKdjq9IVF-117" value="TRUE" style="edgeStyle=orthogonalEdgeStyle;rounded=0;orthogonalLoop=1;jettySize=auto;html=1;" edge="1" parent="1" source="hppBkEB0sqJrKdjq9IVF-114" target="hppBkEB0sqJrKdjq9IVF-44">
          <mxGeometry relative="1" as="geometry" />
        </mxCell>
        <mxCell id="hppBkEB0sqJrKdjq9IVF-114" value="Apakah detail &lt;br&gt;Pemesanan sesuai?" style="rhombus;whiteSpace=wrap;html=1;" vertex="1" parent="1">
          <mxGeometry x="667.5" y="1272.5" width="145" height="125" as="geometry" />
        </mxCell>
      </root>
    </mxGraphModel>
  </diagram>
</mxfile>
